<?xml version="1.0" encoding="utf-8"?>
<!-- Generator: Adobe Illustrator 24.1.0, SVG Export Plug-In . SVG Version: 6.00 Build 0)  -->
<svg version="1.1" xmlns="http://www.w3.org/2000/svg" xmlns:xlink="http://www.w3.org/1999/xlink" x="0px" y="0px"
	 viewBox="0 0 244.919 75" enable-background="new 0 0 244.919 75" xml:space="preserve">
<g id="Layer_1">
	<g>
		<path fill="#83989F" d="M119.994,4.658h6.32v20.027c0,3.529-1.067,6.238-3.283,8.044c-5.007,3.694-11.737,3.694-16.744,0
			c-2.216-1.806-3.283-4.514-3.283-8.044V4.658h6.32v20.027c0,2.052,0.492,3.447,1.477,4.35c2.298,1.806,5.581,1.806,7.88,0
			c0.985-0.903,1.395-2.38,1.395-4.35L119.994,4.658z M140.186,16.888c-1.56-0.082-3.119,0.739-3.858,2.134v16.005h-6.074V12.456
			h5.663L136.082,15c1.56-1.97,4.022-3.119,6.484-3.037c1.888-0.082,3.776,0.575,5.171,1.888c1.313,1.313,1.97,3.529,1.97,6.731
			v14.364h-6.074V20.663c0-1.477-0.328-2.462-0.903-2.955C142.073,17.134,141.171,16.806,140.186,16.888L140.186,16.888z
			 M153.811,6.628c0-0.821,0.328-1.642,0.903-2.216c1.395-1.149,3.529-1.149,4.925,0c0.575,0.575,0.985,1.395,0.903,2.216
			c0,0.821-0.328,1.642-0.903,2.216c-1.395,1.149-3.529,1.149-4.925,0C154.139,8.27,153.811,7.449,153.811,6.628z M160.295,12.456
			v22.572h-6.074V12.456H160.295z M175.972,34.945c-1.149,0.41-2.38,0.575-3.611,0.575c-1.724,0.082-3.365-0.492-4.761-1.56
			c-1.149-0.985-1.724-2.709-1.724-5.171V16.888h-3.365v-4.432h3.365V6.874h6.074v5.581h3.858v4.432h-3.858v11.327
			c-0.082,0.657,0.082,1.395,0.575,1.888c0.492,0.328,1.149,0.492,1.724,0.492c0.328,0,0.657,0,0.985-0.082
			c0.328,0,0.575-0.082,0.739-0.082V34.945z M197.805,31.416c-0.903,1.149-1.97,2.134-3.283,2.791
			c-1.724,0.903-3.611,1.313-5.499,1.313c-3.529,0-6.32-1.067-8.29-3.201c-1.97-2.134-3.037-4.843-2.955-7.715v-0.821
			c-0.164-3.037,0.903-6.074,2.873-8.372c1.97-2.216,4.761-3.447,7.715-3.283c3.283,0,5.746,0.985,7.387,3.037
			s2.544,4.761,2.544,8.044v2.544h-14.364c0.164,1.313,0.739,2.627,1.724,3.529c0.985,0.903,2.38,1.395,3.776,1.313
			c2.134,0.082,4.186-0.821,5.417-2.544L197.805,31.416z M188.284,16.888c-1.149-0.082-2.216,0.41-2.955,1.313
			c-0.739,0.985-1.231,2.134-1.395,3.365h8.372v-0.492c0-1.067-0.328-2.134-0.985-3.037
			C190.582,17.216,189.433,16.806,188.284,16.888z M215.124,35.109l-0.328-2.38c-0.657,0.821-1.477,1.56-2.462,2.052
			c-0.985,0.492-2.134,0.739-3.283,0.739c-2.627,0.082-5.089-1.149-6.484-3.283c-1.642-2.462-2.462-5.335-2.298-8.208v-0.41
			c0-3.447,0.739-6.238,2.298-8.372c1.477-2.134,3.94-3.283,6.566-3.201c2.134-0.082,4.104,0.821,5.417,2.462V3.016h6.074v32.093
			L215.124,35.109z M206.26,24.029c-0.082,1.56,0.246,3.201,0.985,4.596c0.657,1.231,1.97,2.052,3.365,1.888
			c1.642,0.082,3.201-0.821,3.94-2.298v-8.947c-0.657-1.477-2.216-2.462-3.94-2.38c-1.395-0.082-2.709,0.657-3.365,1.97
			c-0.739,1.477-1.067,3.119-0.985,4.761V24.029z M127.956,41.019v30.451h-6.238l-12.23-20.109v20.109h-6.32V41.019h6.32
			l12.23,20.109V41.019H127.956z M145.603,71.471c-0.328-0.657-0.492-1.313-0.575-2.052c-0.657,0.739-1.395,1.313-2.298,1.724
			c-1.067,0.492-2.216,0.739-3.447,0.739c-1.97,0.082-3.94-0.657-5.417-1.888c-1.477-1.231-2.216-2.955-2.216-4.843
			c-0.082-2.134,0.903-4.268,2.627-5.499c1.724-1.313,4.35-1.97,7.798-1.97h2.709v-1.313c0.082-0.903-0.246-1.806-0.821-2.544
			c-0.657-0.657-1.559-0.985-2.544-0.903c-2.134,0-3.201,0.903-3.201,2.709h-6.074c0-1.97,0.985-3.858,2.627-5.089
			c2.052-1.477,4.514-2.216,6.977-2.134c2.298-0.082,4.596,0.575,6.484,1.97c1.724,1.313,2.544,3.283,2.544,5.992v9.521
			c0,1.067,0.082,2.052,0.246,3.119c0.164,0.739,0.328,1.395,0.657,2.052v0.41H145.603z M140.596,67.285
			c0.903,0,1.806-0.246,2.627-0.657c0.657-0.328,1.149-0.903,1.56-1.477v-3.94h-2.462c-1.231-0.082-2.544,0.246-3.529,0.985
			c-0.739,0.657-1.149,1.56-1.149,2.462c0,0.739,0.246,1.395,0.739,1.888C139.036,67.038,139.857,67.285,140.596,67.285
			L140.596,67.285z M166.287,71.306c-0.575,0.164-1.067,0.328-1.642,0.41c-0.657,0.082-1.313,0.164-1.97,0.164
			c-1.724,0.082-3.365-0.492-4.761-1.56c-1.149-0.985-1.724-2.709-1.724-5.171V53.249h-3.365v-4.432h3.365v-5.581h6.074v5.581h3.858
			v4.432h-3.858v11.327c-0.082,0.657,0.082,1.395,0.575,1.888c0.492,0.328,1.149,0.492,1.724,0.492c0.328,0,0.657,0,0.985-0.082
			c0.328,0,0.575-0.082,0.739-0.082L166.287,71.306z M168.831,42.989c0-0.821,0.328-1.642,0.903-2.216
			c1.395-1.149,3.529-1.149,4.925,0c1.231,1.231,1.231,3.201,0,4.514c-1.395,1.149-3.529,1.149-4.925,0
			C169.078,44.631,168.749,43.81,168.831,42.989z M175.234,48.817v22.654h-6.074V48.817H175.234z M178.681,60.39v-0.41
			c-0.082-2.955,0.903-5.91,2.791-8.208c1.888-2.216,4.514-3.283,7.88-3.283c3.447,0,6.074,1.067,7.962,3.283
			c1.888,2.298,2.873,5.253,2.791,8.208v0.41c0.082,2.955-0.903,5.91-2.791,8.208c-1.888,2.216-4.514,3.283-7.88,3.283
			c-3.447,0-6.074-1.067-7.962-3.283C179.584,66.3,178.599,63.345,178.681,60.39L178.681,60.39z M184.755,59.897v0.41
			c-0.082,1.642,0.328,3.283,1.067,4.679c1.313,1.97,4.022,2.544,5.992,1.231c0.492-0.328,0.903-0.739,1.231-1.231
			c0.739-1.477,1.067-3.037,1.067-4.679v-0.41c0.082-1.642-0.328-3.201-1.067-4.679c-0.739-1.313-2.134-2.134-3.611-1.97
			c-1.477-0.082-2.873,0.657-3.611,1.97C185.083,56.696,184.673,58.338,184.755,59.897L184.755,59.897z M213.072,53.331
			c-1.56-0.082-3.119,0.739-3.858,2.216v15.923h-6.074V48.817h5.663l0.246,2.627c1.559-1.97,3.94-3.119,6.484-3.037
			c1.97-0.082,3.858,0.575,5.253,1.888c1.313,1.313,1.97,3.529,1.97,6.731v14.446h-6.074V57.025c0-1.477-0.328-2.462-0.903-2.955
			C214.96,53.495,213.975,53.249,213.072,53.331L213.072,53.331z M239.009,65.151c0-0.657-0.328-1.313-0.903-1.642
			c-1.149-0.657-2.462-1.067-3.694-1.231c-2.052-0.41-4.022-1.149-5.746-2.298c-1.477-0.985-2.38-2.709-2.298-4.514
			c0-1.888,0.903-3.694,2.38-4.925c1.642-1.395,3.776-2.134,6.648-2.134s5.253,0.657,6.977,2.052
			c1.642,1.231,2.544,3.201,2.544,5.253h-6.074c0-0.821-0.246-1.56-0.821-2.134c-0.739-0.575-1.642-0.903-2.627-0.821
			c-0.821-0.082-1.642,0.164-2.38,0.657c-0.492,0.41-0.821,1.067-0.821,1.724c0,0.657,0.328,1.313,0.903,1.642
			c0.985,0.575,2.134,0.903,3.283,1.067c2.134,0.41,4.186,1.149,6.074,2.216c1.642,0.985,2.462,2.627,2.462,4.843
			c0,1.97-0.985,3.776-2.544,4.925c-1.724,1.313-4.022,1.97-6.977,1.97c-3.119,0-5.581-0.821-7.223-2.462
			c-1.559-1.313-2.462-3.201-2.544-5.171h5.746c0,0.985,0.492,1.97,1.313,2.544c0.821,0.492,1.806,0.821,2.873,0.739
			C237.778,67.613,239.009,66.792,239.009,65.151L239.009,65.151z"/>
		<g>
			<g>
				<g>
					<g>
						<path fill="#83989F" d="M70.911,68.27c-2.38,1.149-5.007,1.477-7.633,0.903c-1.806-0.41-3.447-0.985-5.089-1.724l-3.611-1.477
							c-3.119-0.985-6.484-1.067-9.685-0.246h-0.328c-3.201-0.903-6.566-0.821-9.685,0.246c-1.231,0.41-2.38,0.985-3.611,1.477
							c-1.642,0.739-3.365,1.395-5.089,1.806c-2.544,0.575-5.253,0.246-7.633-0.903l-0.328-0.164c-0.082,0-0.082,0-0.082,0.082
							c1.56,1.642,3.611,2.791,5.746,3.365c1.477,0.41,3.037,0.492,4.514,0.328c2.298-0.328,4.514-1.149,6.402-2.462l3.447-2.298
							c1.313-0.821,2.873-1.149,4.35-0.821c0.821,0.082,0.164,0.492,0.082,0.575c-2.052,0.985-4.022,2.216-5.828,3.611
							c-1.231,0.903-3.447,3.037-3.447,3.037L35.042,75l1.806-1.97c2.216-2.298,4.761-4.268,7.551-5.828
							c0.246-0.164,0.492-0.164,0.739,0c2.791,1.56,5.335,3.529,7.551,5.828L54.495,75l1.642-1.395l-3.447-3.037
							c-1.806-1.395-3.776-2.627-5.828-3.611c-0.164-0.082-0.739-0.492,0.082-0.575c1.477-0.328,3.037,0,4.35,0.821l3.447,2.298
							c1.888,1.313,4.104,2.134,6.402,2.462c1.477,0.164,3.037,0.082,4.514-0.328c2.134-0.657,4.186-1.806,5.746-3.365
							c0,0-0.082-0.082-0.164-0.082L70.911,68.27 M78.954,61.129c-1.067,0.821-2.216,1.395-3.447,1.806
							c-1.724,0.492-3.611,0.821-5.417,0.821c-2.38,0.082-4.679,0.246-7.059,0.575c-0.164,0-0.246,0-0.164-0.082
							c2.052-0.821,3.694-2.462,4.596-4.432l2.298-4.679c0-0.082,0-0.082,0-0.164c-0.164,0.082-2.462,2.052-3.529,3.037
							l-3.858,3.776c-1.724,1.477-3.776,2.544-5.992,3.119h-0.082l-0.082,0.082l4.432,1.067c1.888,0.575,3.858,0.903,5.828,1.067
							c5.007,0.492,9.85-1.806,12.64-5.91C79.119,61.129,79.036,61.129,78.954,61.129 M86.177,50.13
							c-1.149,1.395-2.544,2.627-4.104,3.611c-1.313,0.903-2.709,1.642-4.186,2.298c-1.888,0.739-3.611,1.806-5.171,3.037
							l-0.328,0.246c-0.082,0-0.082,0-0.082-0.082c0-0.082,2.462-2.544,3.201-7.715c0.082-1.888,0.41-3.694,0.821-5.499
							c0-0.082,0-0.082,0-0.164c-1.724,2.134-3.037,4.514-3.94,7.059l-1.477,4.186c-0.575,1.888-1.642,3.611-3.037,5.007
							l-0.164,0.164v0.082c0.164,0,0.328-0.082,0.492-0.082l4.761-0.985c2.627-0.41,5.089-1.477,7.223-3.037
							c2.216-1.56,3.94-3.694,5.171-6.074c0.328-0.657,0.575-1.313,0.821-1.97C86.342,50.048,86.259,50.048,86.177,50.13
							 M89.296,37.818c-0.739,2.216-2.052,4.268-3.776,5.91c-1.97,1.888-3.776,4.022-5.417,6.156c0,0.082-0.164,0-0.082-0.082
							c0.657-2.216,0.821-4.596,0.492-6.977c-0.328-1.97-1.149-4.104-1.395-6.484l-0.082-0.082c0,0.082-0.082,0.164-0.082,0.246
							c-0.492,1.56-0.821,3.119-0.985,4.761c-0.082,1.97,0.246,4.514,0.082,6.484c-0.164,2.298-0.328,4.679-1.395,6.731
							c0,0.082,0,0.082,0,0.164l4.925-3.037c2.052-1.313,3.776-2.955,5.171-4.925c1.806-2.544,2.709-5.499,2.709-8.618
							c0-0.082,0-0.246,0-0.328C89.379,37.736,89.296,37.818,89.296,37.818"/>
						<path fill="#83989F" d="M84.043,39.131C84.125,39.131,84.125,39.131,84.043,39.131C84.043,39.213,84.043,39.131,84.043,39.131
							c0-0.657,0-1.313-0.082-1.97c-0.164-2.298-1.56-4.186-2.791-6.156c-0.821-1.231-1.56-2.544-2.216-3.94
							c0,0-0.082-0.082-0.164-0.082c0,0.164,0,0.903,0.082,1.313c0.41,3.283,1.231,6.566,2.462,9.685
							c0.739,1.97,0.985,4.022,0.821,6.074c0,0.164,0,0.164,0.082,0.246c0.739-1.067,2.216-2.544,3.119-3.694
							s5.828-6.731,3.447-14.446c-0.082-0.328-0.246-0.657-0.41-0.985l-0.082,0.082c0,5.581-2.709,7.962-3.776,11.737
							C84.29,37.9,84.125,38.557,84.043,39.131 M84.125,27.64l-0.492-1.313l-0.328-0.739c-0.821-1.477-1.97-2.791-3.365-3.776
							c-1.149-0.985-2.134-2.052-2.955-3.283c0,0-0.082,0-0.164,0h-0.082c0.082,0.246,0.821,2.709,1.313,3.858
							c0.821,1.56,1.806,3.119,2.955,4.432l0.246,0.328c1.395,1.888,2.462,3.94,3.201,6.156c0,0.082,0.082,0.082,0.082,0.082
							l1.395-4.268c0.492-1.477,0.903-3.037,1.231-4.596c0.492-3.694-0.657-8.372-2.791-10.999c0,0-0.082,0.082-0.082,0.164
							l0.082,0.328l0.164,0.492c0.41,1.97,0.492,4.104,0.082,6.074c-0.328,1.56-0.41,3.201-0.41,4.843
							c0,0.246,0.164,2.298,0.164,2.38s-0.082,0-0.164,0 M77.559,7.038c0.657,0.657,1.231,1.395,1.56,2.298
							c0.575,1.395,0.739,3.447,1.149,5.007l0.739,2.709c0,0.082-0.082,0.164-0.164,0.082c-1.231-1.477-2.709-2.709-4.432-3.694
							c-1.149-0.657-2.052-1.56-2.873-2.544l-0.41-0.575c0,0-0.082-0.082-0.164,0c0,0.082,0,0.164,0,0.246
							c0.41,1.806,1.231,3.529,2.544,4.925c1.067,0.985,2.216,1.888,3.283,2.791c1.395,1.149,2.709,2.544,3.94,3.94
							c0,0,0.082,0.082,0.082,0V20.91l0.082-3.94v-1.313c0-1.313-0.246-2.709-0.739-3.94c-0.821-2.052-2.38-3.694-4.268-4.679
							c-0.082-0.082-0.246-0.082-0.41-0.164C77.477,6.874,77.477,6.956,77.559,7.038 M69.105,3.181
							c1.149,1.067,2.134,2.298,3.037,3.611c0.821,1.313,1.724,2.462,2.873,3.529c0.739,0.739,2.955,2.462,3.529,2.955
							c-0.082-0.657-1.149-5.335-4.022-7.633c-1.642-1.313-3.611-2.298-5.663-2.791c0,0.082,0,0.082,0,0.164L69.105,3.181
							 M23.14,67.12c1.888-0.164,3.858-0.492,5.663-1.067l4.432-1.067h0.082c0,0,0-0.082-0.082-0.082h-0.082
							c-2.216-0.575-4.268-1.642-6.074-3.119l-3.858-3.694l-3.529-3.037v0.164c0.328,0.492,1.56,3.201,2.298,4.679
							c0.903,2.052,2.544,3.611,4.596,4.432c0.082,0.082,0,0.082-0.164,0.082c-2.298-0.328-4.679-0.492-7.059-0.575
							c-1.806,0-3.694-0.328-5.417-0.821c-1.231-0.41-2.38-0.985-3.447-1.806c-0.082,0-0.082,0-0.164,0
							c1.642,2.298,3.94,4.104,6.566,5.089C18.954,66.956,21.006,67.202,23.14,67.12 M21.253,62.278
							c0.164,0,0.246,0.082,0.492,0.082v-0.082l-0.164-0.164c-1.395-1.395-2.38-3.119-3.037-5.007l-1.477-4.186
							c-0.903-2.544-2.216-4.925-3.94-7.059c0,0.082,0,0.082,0,0.164c0.492,1.806,0.739,3.611,0.903,5.499
							c0.739,5.089,3.201,7.551,3.201,7.633c0,0.082,0,0.164-0.082,0.082l-0.328-0.246c-1.56-1.231-3.283-2.298-5.171-3.037
							c-1.477-0.657-2.873-1.395-4.186-2.298c-1.56-0.985-2.955-2.216-4.104-3.611H3.277c0.246,0.657,0.492,1.313,0.821,1.97
							c1.231,2.38,3.037,4.514,5.253,6.074c2.134,1.642,4.596,2.709,7.223,3.037C18.134,61.539,19.693,61.949,21.253,62.278
							 M8.038,51.607l4.925,3.037c0,0,0.082-0.082,0.082-0.164c-1.067-2.134-1.231-4.432-1.395-6.731
							c-0.164-2.052,0.164-4.514,0.082-6.484c-0.164-1.642-0.492-3.283-0.985-4.843c0-0.082-0.082-0.164-0.082-0.246l-0.082,0.082
							l0,0c-0.164,2.38-1.067,4.514-1.395,6.484c-0.328,2.298-0.164,4.679,0.492,6.977c0.082,0.082-0.082,0.164-0.082,0.082
							c-1.642-2.216-3.447-4.268-5.417-6.156c-1.724-1.642-3.037-3.611-3.776-5.828c0,0-0.082-0.082-0.164-0.082s0,0.164,0,0.328
							c0,3.037,0.903,6.074,2.709,8.618C4.262,48.57,5.986,50.294,8.038,51.607 M7.135,44.384c0.082-0.082,0.082-0.082,0.082-0.246
							c-0.164-2.052,0.082-4.186,0.903-6.074c1.149-3.119,1.97-6.32,2.462-9.685c0-0.41,0.082-1.149,0.082-1.313
							c-0.082,0-0.082,0-0.082,0.082c-0.657,1.395-1.395,2.709-2.216,3.94c-1.313,1.806-2.627,3.776-2.791,6.074
							c-0.082,0.657-0.082,1.313,0,1.97c0,0,0,0.082-0.082,0.082c0,0,0,0,0-0.082l-0.575-1.97
							c-1.149-3.776-3.776-6.156-3.776-11.737l-0.082-0.082c-0.164,0.328-0.246,0.657-0.41,0.985
							c-2.38,7.715,2.462,13.297,3.447,14.446S6.396,43.317,7.135,44.384 M3.688,29.036l1.395,4.268c0,0,0.082,0,0.082-0.082
							c0.739-2.216,1.888-4.268,3.201-6.156l0.246-0.328c1.149-1.395,2.134-2.873,2.955-4.432c0.492-1.149,1.231-3.611,1.313-3.858
							h-0.082c-0.082,0-0.082,0-0.164,0c-0.821,1.231-1.806,2.298-2.955,3.283c-1.395,0.985-2.627,2.298-3.447,3.858
							c-0.082,0.246-0.246,0.492-0.328,0.739l-0.492,1.395c0,0-0.082,0.164-0.082,0s0.164-2.052,0.164-2.38
							c0-1.642-0.164-3.283-0.492-4.843c-0.41-2.052-0.328-4.104,0.082-6.074c0-0.164,0.082-0.328,0.164-0.492
							c0-0.082,0.082-0.246,0.082-0.328s0-0.082-0.082-0.164c-2.134,2.627-3.365,7.387-2.873,10.999
							C2.785,25.999,3.195,27.558,3.688,29.036 M6.643,17.052l0.082,3.94l0,1.231h0.082c1.149-1.477,2.462-2.791,3.858-4.022
							l3.283-2.791c1.313-1.395,2.134-3.119,2.544-4.925c0-0.082,0-0.164,0-0.246H16.41L16,10.814
							c-0.739,0.985-1.724,1.888-2.791,2.544c-1.97,1.231-3.283,2.134-4.432,3.694c-0.082,0.082-0.164,0.082-0.082-0.082
							l0.739-2.709c0.41-1.56,0.575-3.611,1.149-5.007c0.328-0.821,0.903-1.642,1.56-2.298c0-0.082,0-0.082,0-0.164
							c-0.164,0-0.246,0.082-0.41,0.164c-2.052,1.067-3.529,2.791-4.35,4.761c-0.492,1.231-0.821,2.544-0.739,3.94V17.052
							 M10.993,13.194L10.993,13.194l3.611-2.955c1.067-1.067,2.052-2.216,2.873-3.529c0.821-1.313,1.888-2.544,3.037-3.611
							l0.246-0.246c0-0.082,0-0.082,0-0.164c-2.052,0.492-4.022,1.395-5.663,2.791C12.06,7.859,11.075,12.538,10.993,13.194
							 M43.989,38.639c0.246-0.328-0.328-0.575-0.492,0C43.332,39.213,43.742,39.049,43.989,38.639 M50.227,24.193
							c-0.246-0.082-1.149,0.985-0.985,1.149C49.652,25.096,49.98,24.685,50.227,24.193 M50.391,24.029
							c0.164,0.082,0.739-0.246,0.657-0.328c-0.082-0.082-0.821-0.41-0.821-0.246C50.227,23.783,50.309,23.947,50.391,24.029
							 M61.472,34.207c0.328-0.082,0.246-0.575,0-0.575c-0.246,0-0.575,0.41-0.492,0.41S61.307,34.289,61.472,34.207 M57.45,23.29
							c-0.246,0-0.328,0.246-0.082,0.41c0.246,0.082,0.41,0,0.575-0.082c0.164-0.082,0.328-0.246,0.328-0.492
							s-0.328-0.575-0.164-0.739c0.164-0.164,0.41,0.082,0.575,0c0.164-0.082,0.246-0.246,0.246-0.41s-0.082-0.657-0.41-0.657
							c-0.328,0-0.657,0.657-0.657,0.657c-0.082,0.164-0.082,0.41,0,0.575C57.942,22.88,57.86,23.29,57.45,23.29"/>
						<path fill="#83989F" d="M62.867,23.372c0,0.164,0.41,1.231,0.492,1.477c0.082,0.246,0.164,1.149,0.328,1.067
							c0.164-0.082,0.164-0.575,0.082-0.821c-0.082-0.575-0.246-1.231-0.41-1.724c-0.082-0.328-0.657-1.56-0.821-1.477
							c-0.164,0.082,0.246,0.821,0.328,1.149C62.949,23.372,62.785,23.208,62.867,23.372 M59.994,9.419
							c0.246,0.082,0.246-0.41-0.164-0.739c-0.41-0.328-1.067-0.164-0.903,0C59.255,8.926,59.584,9.254,59.994,9.419 M47.682,5.889
							C47.108,5.561,47.6,5.068,47.19,4.74c-0.492-0.164-0.985-0.082-1.313,0.246c-0.41,0.492,0.492,0.328,0.739,0.492
							c0.246,0.164,1.067,0.739,1.149,0.657C47.846,6.053,47.764,5.889,47.682,5.889 M50.965,4.248
							c-0.739-0.328-3.447-0.328-3.365,0.41s1.56,0,1.97,0S51.622,4.576,50.965,4.248 M43.496,35.93
							c-0.164-0.082-0.41,0.082-0.492-0.082c-0.082-0.164-0.246-0.082-0.246,0c0,0.082-0.082,0.246,0.082,0.41
							c0.164,0.164,0.492,0.164,0.657,0C43.578,36.176,43.578,36.012,43.496,35.93 M41.937,30.431c0.246,0,0.246-0.164,0.328-0.164
							s0,0.164,0.246,0.164c0.246,0,0.492-0.575-0.246-0.575C41.69,29.856,41.772,30.431,41.937,30.431 M42.922,31.088
							c-0.41-0.082-0.328,0.164-0.657,0.164c-0.492,0.082-0.082-0.328-0.246-0.492c-0.082-0.082-0.328,0.328-0.41,0.575
							c0,0.164,0,0.492,0.164,0.575l1.56,0.164C43.66,32.073,43.332,31.17,42.922,31.088 M37.833,36.423
							c0.164,0,0.246-0.492,0.164-0.739c-0.082-0.246-0.575-0.082-0.575,0.082C37.422,35.93,37.751,36.423,37.833,36.423
							 M31.266,36.423c0-0.164,0-0.821-0.164-0.985c-0.164-0.164-0.164,0.082-0.246,0.082c-0.082,0-0.082-0.328-0.164-0.328
							s0,0.492,0.164,0.821C31.02,36.341,31.266,36.833,31.266,36.423 M31.102,34.945c0.164-0.492,0.246-0.985,0.246-1.477
							c0-0.41-0.246-0.739-0.328-0.739c-0.082,0,0,0.246,0.082,0.657c0,0.41-0.164,0.821-0.246,1.231
							C30.856,34.699,31.02,35.109,31.102,34.945"/>
						<path fill="#83989F" d="M22.73,53.331c12.23,12.23,31.929,12.23,44.159,0s12.23-31.929,0-44.159s-31.929-12.23-44.159,0
							S10.5,41.183,22.73,53.331 M14.933,31.908h4.761c0.082,2.462,0.492,4.843,1.231,7.141c-0.246-0.082-0.492-0.164-0.739-0.328
							c-0.328-0.164-0.575,0.082-0.657,0.082c-0.328,0-0.739-0.246-0.739,0c0,0.246,0.328,0.082,0.328,0.246
							s-0.821,0.164-0.903-0.164c-0.082-0.328-0.246-0.657-0.328-0.246c-0.082,0.41-0.41,0.328-0.575,0.41
							c-0.082,0.082-0.164,0.246-0.164,0.41c0,0.164-0.41,0.082-0.41,0.328c0,0.246,0.246,0.328,0.328,0.575
							c0.082,0.246,0.328,0.41,0.164,0.492c-0.164,0.082-0.082-0.082-0.246,0c-0.164,0.082,0.739,2.544,0.903,2.462
							c0.164-0.082-0.246-0.821-0.246-1.149s0.082-0.41,0.328-0.575c0.246-0.164,0.903,0.985,1.149,0.821
							c0.246-0.164-0.082-0.328,0.164-0.41c0.246-0.082,0.985,1.067,1.231,0.739c0.164-0.246,0.328,0.164,0.328,0.246
							c0.246,0.41,0.657,0.41,0.903,0.903c0.246,0.492,0.821,1.395,1.231,1.395s0.164-0.41,0.328-0.41s0.328,0.575,0.575,0.903
							c0.164,0.246,0.41,0.41,0.739,0.492c0.575,0.739,1.231,1.477,1.888,2.216l-3.365,3.365
							C17.969,46.601,15.015,39.46,14.933,31.908 M42.101,25.096l-0.328,0.164c-0.492,0.246-0.903,0.492-1.231,0.821l-3.365-3.365
							c1.97-1.724,4.432-2.791,6.977-2.873v4.761c-0.575,0.082-1.149,0.164-1.724,0.41c0.164-0.328,0.492-0.657,0.492-0.657
							S42.347,24.685,42.101,25.096 M39.556,32.893C39.556,32.893,39.556,32.975,39.556,32.893c0,0.082,0,0.164,0,0.164
							c0-0.164-0.082-0.246-0.164-0.41c-0.082-0.082-0.164-0.164-0.246-0.164s-0.164,0-0.246,0h-0.164l-0.164,0.082h-1.149
							c-0.164,0-0.246,0-0.246-0.082c-0.082-0.328,0.41-0.082,0.739-1.067c0.082-0.082,0.082-0.246,0.164-0.328l0.082-0.164
							l0.082-0.082l0.082-0.082c0.164-0.164,0.328-0.164,0.492-0.164h0.164l0.164,0.164l0.246,0.492
							c0.082,0.082,0.164,0.082,0.164,0.164c0.164,0.082,0.246,0.164,0.328,0.246l0.082,0.082v0.082
							c0.082,0.082,0.082,0.082,0.164,0.082h0.082c0.082,0,0.082,0,0.164,0h0.082c0.164-0.082,0.164,0,0.246,0v0.082
							c0,0.082,0,0.082-0.082,0.164c0,0.082-0.082,0.082-0.082,0.164c-0.082,0.082-0.164,0.164-0.246,0.164
							c-0.164,0-0.328-0.082-0.41-0.082s-0.164,0-0.164,0.082v0.41 M30.692,40.773c-0.246-0.41-0.328-0.985-0.328-1.477
							c0-0.492-0.164-0.985-0.41-1.395c-0.082-0.328-0.164-0.657-0.164-0.985c0-0.575-0.492-0.41-0.492-0.575s0.41,0,0.41-0.164
							c0-0.164-0.492-0.821-0.903-0.985c-0.41-0.164-0.246-0.41-0.246-0.657c0-0.246,0-0.492-0.164-0.657
							c-0.082-0.328,0-0.903,0.41-0.903c0.164,0,0.41,0.164,0.657,0c0.246-0.164,0.082-0.657,0.082-1.067h2.298
							c0,0.328,0.082,0.739,0.082,1.067c-0.164,0.082-0.246,0.246-0.164,0.328c0.082,0.082,0.164,0.164,0.246,0.082
							c0.41,2.38,1.477,4.596,3.119,6.402l-3.365,3.365c-0.246-0.246-0.492-0.575-0.739-0.903c0-0.082,0-0.164,0-0.246
							c0-0.575-0.41-0.903-0.575-1.395 M27.491,35.027c-0.246-0.985-0.328-2.052-0.41-3.119h1.97
							c-0.164,0.246-0.575,0.492-0.657,0.739c-0.082,0.246-0.575,1.067-0.246,1.395C28.886,34.863,27.983,35.192,27.491,35.027
							 M27.901,47.175l-0.41,0.41c-0.164-0.164-0.41-0.41-0.575-0.575C27.244,46.847,27.573,46.929,27.901,47.175 M32.99,26.081
							c-0.082,0-0.082,0.082-0.164,0.082c-0.246,0.246-0.903,0.164-0.821,0.41c0.082,0.246,1.806-0.575,1.806-0.41
							c0,0.164-0.739,0.41-1.231,0.657c-0.492,0.246-0.657,0.657-1.477,0.657c-0.41,0-0.575,0.328-0.739,0.575
							c-0.246,0.328-0.41,0.657-0.575,0.985c0,0.492-0.082,0.985-0.328,1.477h-2.38c0.164-4.186,1.806-8.208,4.679-11.327
							l3.365,3.365C34.303,23.7,33.565,24.85,32.99,26.081 M36.109,23.618l2.955,2.955c-0.082,0-0.164,0-0.328,0
							c-0.328,0-0.328-0.246-0.575-0.246c-0.492,0.082-0.575,0.246-0.657,0.164c-0.328-0.328-0.739-0.575-1.231-0.821
							c-0.575-0.164-1.149-0.164-1.642,0.082c-0.082,0-0.082,0.082-0.164,0.082C35.042,25.096,35.617,24.357,36.109,23.618
							 M32.005,29.61c0,0.328-0.082,0.657-0.082,0.985h-1.724c-0.082-0.246,0-0.492,0.164-0.739c0.164-0.328,0.575-0.492,0.985-0.41
							C31.513,29.446,31.759,29.528,32.005,29.61 M33.482,33.468l0.164,0.246c0.164,0.164,0.328,0.328,0.492,0.246
							c0.164-0.082,0.575,0,0.657,0c0.246,0.082,0.41,0.246,0.575,0.41c0.164,0.246,0.492,0.082,0.739,0.246
							c0.246,0.164,0.492,0.328,0.164,0.492s0.328,0.492,0.41,0.492c0.082,0,0.164-0.164,0.164-0.41c0-0.082,0.164-0.41,0.41-0.328
							c0.246,0.082,0.985,0.985,1.231,0.657c0.246-0.328,0.082-0.739,0.164-0.903c0-0.082,0.082-0.164,0.164-0.164
							c0.246,0.41,0.41,0.739,0.739,1.067l-3.365,3.365C34.796,37.408,33.811,35.52,33.482,33.468 M36.109,21.731l-3.283-3.365
							c3.119-2.873,7.141-4.514,11.327-4.679v4.761C41.198,18.529,38.407,19.679,36.109,21.731 M31.841,17.38l-3.365-3.365
							c4.268-4.022,9.85-6.32,15.677-6.484v4.761C39.556,12.456,35.124,14.261,31.841,17.38 M30.856,18.283
							c-3.119,3.365-4.925,7.715-5.089,12.312h-4.761c0.164-5.828,2.462-11.409,6.484-15.677L30.856,18.283z M25.767,31.908
							c0,0.903,0.082,1.724,0.246,2.627c-0.082,0-0.082-0.246-0.328-0.164s-1.149,1.642-1.56,2.298
							c-0.328,0.575,0.164,1.806-0.328,2.216c-0.492,0.164-0.985,0.246-1.477,0.246h-0.082c-0.821-2.298-1.231-4.679-1.313-7.059
							L25.767,31.908z M44.071,61.129c-7.469-0.164-14.61-3.119-19.945-8.29l3.365-3.365c4.514,4.268,10.424,6.731,16.58,6.895
							V61.129z M44.071,55.055c-5.828-0.164-11.409-2.462-15.677-6.484l0.575-0.575c0.082,0.082,0.246,0.164,0.41,0.246
							c0.328,0.164,0.739,0.246,1.149,0.164c0.328-0.082,0.985-0.657,1.395-0.657c0.41,0,1.067,0.164,1.477-0.082
							s-0.246-1.067-0.492-1.477c-0.082-0.082-0.082-0.164-0.164-0.246c3.201,2.709,7.305,4.268,11.491,4.35L44.071,55.055z
							 M44.071,48.899c-4.186-0.164-8.208-1.806-11.327-4.679l3.365-3.365c1.56,1.395,3.447,2.462,5.581,2.955
							c-0.739,0.328-1.067,0.821-0.985,1.231s-0.492,0.657-0.492,1.149s0.657,0.821,0.739,1.313
							c0.082,0.246,0.657,0.657,1.149,0.985c0.657,0.164,1.313,0.246,1.888,0.164L44.071,48.899z M43.907,42.332
							c-0.246-0.164-0.41,0.164-0.739,0.328c-2.298-0.328-4.35-1.313-6.074-2.791l3.365-3.365c1.067,0.821,2.298,1.395,3.611,1.477
							c0,0.164,0.164,0.328,0.164,0.657s-0.246,0.492-0.164,0.657c0.082,0.164,0.821,0,0.903-0.246s-0.246-0.41-0.328-0.657
							c-0.082-0.164-0.082-0.246-0.164-0.41h0.246c0.246,0,0.492,0,0.739-0.082c0.082,0,0.164-0.082,0.164-0.164
							c0-0.082,0.082-0.164,0.082-0.246s0.082-0.082,0.082-0.164l0,0l0.082,0.082c0.082,0.164,0.246,0.657,0.41,0.575
							c0.164-0.082,0.246-0.821,0.164-0.985c-0.164-0.246-0.164-0.492,0-0.739c0-0.082,0.082-0.575,0.246-0.492
							c0.164,0.082,0,0.492,0,0.657c0,0.246,0.164,0.575,0.41,0.41c0.164-0.082,0.328-0.328,0.492-0.246
							c0.164,0.082-0.41,0.246-0.492,0.41c-0.082,0.164,0.246,0.246,0.164,0.328c-0.082,0.082-0.164,0-0.246,0.082
							c-0.082,0.082,0.164,0.575,0,0.657c-0.164,0.082-0.739,0.246-0.903,0.328c-0.164,0.082-0.328-0.082-0.246-0.164
							c0.082-0.082,0-0.41-0.164-0.41c-0.164,0-0.164,0.082-0.164,0.246c0,0.164,0.164,0.41,0.164,0.492
							c0,0.082-0.246,0.164-0.41,0.246c-0.164,0.246-0.41,0.492-0.657,0.657c-0.246,0.164-0.739,0.164-0.739,0.328
							s0.246,0.164,0.328,0.246c0.164,0.246,0.246,0.575-0.082,0.739c-0.328,0.164-0.739-0.246-0.903-0.164
							c-0.164,0.082-0.246,0.492-0.328,0.985c-0.082,0.492,0.903,0.657,1.395,0.41c0.328-0.164,0.246-0.657,0.575-0.821
							c0.328-0.164,0.246-0.492,0.575-0.41c0.328,0.082,0.246-0.246,0.575-0.246s0.328,0.246,0.739,0.328
							c0.657,0.164,0.657,0.657,0.739,0.41c0.082-0.246,0.164-0.41-0.328-0.575c-0.492-0.164-0.739-0.739-0.328-0.575
							c0.492,0.246,0.903,0.246,0.985,0.492c0.082,0.246,0.575,0.164,0.657,0.41c0.082,0.41,0.41,0,0.164-0.246
							c-0.246-0.246-0.164-0.328,0-0.492c0.164-0.164,0.246,0.082,0.492-0.246s-0.082-0.246-0.164-0.41
							c-0.082-0.164,0-1.067,0.328-0.903s0.657-0.082,0.492-0.164c-0.164-0.082,0.082-0.575,0.164-0.575s0,0.328,0.082,0.41
							c0.082,0.082,0.903-0.246,0.985,0.164s-0.575,0.657-0.739,0.657c-0.328,0-0.575,0.328-0.821,0.657
							c-0.246,0.328-0.492,0.41-0.328,0.739s0.492,0.246,0.821,0.082c0.328-0.164,0.575-0.41,0.739-0.492
							c0.328-0.164,0.575,0.821,0.41,0.985c-0.164,0.164-0.492,0.246-0.657,0.41c-0.492,0.246-0.985,0.492-1.56,0.492
							c-0.328,0.082-0.328,0.164-0.41,0.492c-0.082,0.328-1.56,0.082-1.888,0.082s0.246-0.739-0.246-0.657
							c-0.492,0.082-0.985,0.164-1.477,0.246C44.809,42.25,44.317,42.661,43.907,42.332 M48.257,49.966
							c0.41,0.164,0.821,0.492,1.067,0.821c0.246,0.41,0.328,0.575,0.164,0.985c-0.41,0.739-0.246,1.231,0.575,1.477
							c0.492,0.164,0.657,0.657,0.985,0.985c-1.806,0.492-3.694,0.739-5.581,0.821v-4.761C46.369,50.212,47.354,50.13,48.257,49.966
							 M45.466,48.981v-0.575c1.067-0.164,0.821,0.492,1.56,0.246c0.246-0.082,0.492,0,0.657,0.164
							C46.943,48.817,46.205,48.899,45.466,48.981 M45.466,61.211v-4.843c2.462-0.082,4.925-0.492,7.305-1.313
							c0.082,0.082,0.164,0.082,0.246,0.082c0.328,0,0.657-0.164,0.903-0.328c0.821-0.328,1.56-0.739,2.216-1.231
							c2.134-1.067,4.186-2.544,5.91-4.186l3.365,3.365C60.076,58.01,52.935,60.964,45.466,61.211 M58.763,18.283l1.149-1.149
							c0.328,0.328,0.657,0.575,1.149,0.657c0.41,0.082,0.575,0.246,0.657,0.657s0.492,0.575,0.903,0.657
							c0.41,0.082,0.657,0.575,0.985,0.575s1.395,1.477,1.806,1.97c0.246,0.246,0.575,0.657,0.821,0.328s0.246-0.246,0.41-0.328
							c1.231,2.791,1.97,5.91,2.052,8.947h-4.761c0-1.067-0.164-2.134-0.41-3.201c0.164-0.328,0.246-0.657,0.246-1.067
							c0-0.328-0.328-0.492-0.575-0.246c-0.164-0.657-0.41-1.231-0.657-1.806c-0.082-0.328-0.164-0.739-0.246-1.067
							c0-0.082-0.164-0.164-0.328-0.328c-0.164-0.328-0.246-0.575-0.41-0.821c0.246-0.164,0.328-0.575,0-0.492
							c-0.492,0.082-0.164-0.246-0.328-0.41s-0.164,0-0.246,0.082c-0.657-0.985-1.313-1.888-2.134-2.791c0,0,0,0,0-0.082
							C58.681,18.365,58.681,18.283,58.763,18.283 M61.636,46.108c-0.164-0.328-0.246-0.739-0.41-1.067
							c-0.082-0.328-0.739-0.328-0.739-0.164c0,0.328,0,0.657-0.082,0.985v0.082l-1.724-1.724c3.119-3.365,4.925-7.715,5.089-12.312
							h4.761c-0.164,5.828-2.462,11.409-6.484,15.595L61.8,47.257C61.882,46.929,61.8,46.518,61.636,46.108 M57.696,49.391
							c0.246-0.41,0.739-1.149,0.985-1.56s-0.657-0.985-1.149-1.149c-0.492-0.164-0.492-0.41-0.492-0.821
							c0.246-0.164,0.492-0.41,0.739-0.657l3.365,3.365c-1.149,1.067-2.298,1.97-3.611,2.791c-0.082-0.164,0.492-0.739,0.657-0.985
							C58.353,50.13,57.532,49.802,57.696,49.391 M59.748,29.774c-0.41-0.575,0.164-0.657,0.739-0.903
							c0.328-0.164,0.739,0.082,0.739-0.082s0.164-0.492,0.328-0.575c0.164-0.082,0.41-0.246,0.492-0.41
							c0,0.164,0.082,0.328,0.082,0.492c-0.164,0.328-0.246,0.575-0.246,0.903c0,0.246,0,0.575,0.246,0
							c0-0.082,0.082-0.082,0.082-0.164c0.164,0.575,0.164,1.067,0.164,1.56h-3.529c0,0,0,0,0-0.082
							C59.091,30.103,59.994,30.185,59.748,29.774 M60.404,23.044c0,0,0,0.082-0.082,0.082c-0.082,0.082-0.492-0.575-0.492-0.082
							c0,0.492,0.164,0.657,0.492,0.739c0.328,0.082,0.164,0.246,0.41,0.328c0.082,0,0.246,0.082,0.328,0.164
							c0.41,0.903,0.657,1.806,0.903,2.791c-0.164,0.082-0.246,0.164-0.328,0.246c-0.164,0.164-0.082,0.492-0.246,0.739
							c-0.246,0.41-0.328,0.657-0.985,0.492c-0.41-0.164-0.082-0.657,0-1.067c0.082-0.41,0.246-0.328,0.246-0.575
							c0-0.246-0.821-1.149-1.231-0.821c-0.41,0.328-0.328,0.657-0.657,0.985c-0.164,0.164-0.328,0.164-0.575,0
							s-0.328-0.328-0.246-0.492c0.082-0.164-0.575-0.903-0.821-1.231c-0.328-0.41-0.821-0.657-1.313-0.657
							c-0.41-0.739-0.985-1.477-1.56-2.134l3.365-3.365C58.763,20.417,59.666,21.648,60.404,23.044 M54.741,25.342l-0.164,0.246
							c-0.082,0.164-0.492-0.164-0.575-0.082c-0.082,0.082,0.575,0.903-0.082,0.657s-0.246-0.246-0.246-0.492
							s-0.575-0.41-0.246-0.575c0.328-0.164,0-0.41,0.328-0.492c0.328-0.082,0.246-0.41-0.164-0.492
							c-0.41-0.082-0.328,0.903-0.575,0.739c-0.246-0.082-0.492-0.082-0.739-0.082l1.149-1.149c0.164,0.082,0.246,0.082,0.41,0.082
							C54.002,24.357,54.413,24.85,54.741,25.342 M53.428,42.004c0.492,0.082,1.067,0.164,1.56,0.328
							c0.328,0.164,0.575,0.492,0.821,0.082c0.492-0.739,0.821-1.56,0.985-2.462c0.164-1.231-0.082-1.642-0.246-1.642
							s-0.492,0.328-0.821,0.328c-0.164,0-0.164,0.328-0.164,0.575c0,0.246-0.328,0.492-0.41,0.328
							c-0.082-0.164-0.246-0.082-0.164,0.082c0.082,0.164-0.657,0.082-0.985-0.082c-0.492-0.246,0.575-0.246,1.067-0.657
							c0.41-0.328,0.821-0.739,1.231-1.149c0.246-0.41,0.246-0.903,0.657-1.231c0.41-0.328,1.067-0.246,1.149-0.739
							c0.082-0.492,0.164-0.41,0.41-0.328c0.246,0.082,2.544-0.082,2.544-0.821c0-0.328-0.492-0.739-0.985-0.821
							c-0.328,0-0.41-0.657-0.575-0.985c-0.164-0.328-0.328-0.657-0.575-0.985h3.447c-0.164,4.186-1.806,8.208-4.679,11.327
							l-0.082-0.082v-0.328c0.082-0.657-0.41-1.724-0.575-1.56c-0.164,0.164,0,0.164-0.492,0.903
							c-0.164,0.246-0.41,0.657-0.739,0.657c-0.328,0-0.328-0.164-0.821-0.082c-0.41,0.082-0.903,0.082-1.313,0
							c-0.739-0.246-1.477-0.575-2.216-1.067c0.082-0.082,0.328,0.082,0.328-0.164C51.786,41.183,53.099,41.922,53.428,42.004
							 M66.314,51.936l-3.365-3.365c4.268-4.514,6.731-10.424,6.895-16.58h4.843C74.522,39.46,71.567,46.518,66.314,51.936
							 M74.686,30.595h-4.843c-0.082-3.529-0.903-6.977-2.462-10.178l0.082-0.082c0.328-0.328-1.56-2.791-1.888-3.037
							c-0.328-0.246-0.657-0.657-1.067-1.067c-0.657-0.657-1.313-1.395-1.806-2.134l3.529-3.529
							C71.567,15.985,74.522,23.126,74.686,30.595 M45.466,1.375c7.469,0.164,14.61,3.119,20.027,8.29l-3.283,3.283
							c-0.164-0.082-0.328-0.164-0.246-0.328c0.164-0.246-0.246-0.246-0.328-0.903c-0.164-0.657-0.657-1.231-1.231-1.56
							c-0.41-0.246-0.657-0.575-1.067-0.739c-0.41-0.164-1.231-0.657-1.642-0.492C57.45,9.008,57.121,9.09,56.875,9.09
							c-3.529-1.888-7.387-2.873-11.327-2.955L45.466,1.375z M45.466,7.531c3.529,0.082,6.895,0.985,10.096,2.544
							c0.082,0.492,0.328,1.067,0.657,1.477c0.164,0.41,0.41,0.739,0.657,1.149c0.246,0.246,0.082,0.739,0.164,1.149
							c0,0.164,0.164,0.328,0.246,0.492c0,0.246,0,0.41,0,0.657c0,0.082,0.328,0.082,0.575-0.082c0.246-0.164,0.41-0.492,0.739-0.41
							c0.328,0.082,0.739,0.739,0.985,1.149l-1.56,1.56c-0.164-0.328-0.328-0.739-0.246-0.739s0.246,0.082,0.328,0.082
							c0.328,0-0.246-0.246-0.246-0.328c-0.246-0.246-0.246-0.575-0.575-0.821c-0.328-0.246-0.821-0.082-0.985-0.41
							c-0.328-0.575-0.739-1.067-1.313-1.477c-0.082,0,0.657,0.903,0.41,1.067c-0.246,0.164-1.149-0.575-1.231-0.41
							c-0.082,0.164,0.985,0.575,1.313,0.903c0.164,0.164,0.492,0.657,0.821,1.067c-3.119-2.38-6.895-3.694-10.834-3.858
							L45.466,7.531z M45.466,13.605c4.186,0.164,8.208,1.806,11.327,4.679l-3.365,3.365c-2.216-1.97-5.007-3.119-7.962-3.283
							L45.466,13.605z M45.466,19.761c2.627,0.164,5.089,1.149,6.977,2.873l-0.164,0.164l-0.164-0.082
							c-0.41-0.164-1.231,0.657-1.067,0.739c0.164,0.082,0.492-0.328,0.657-0.246h0.082l-1.395,1.477
							c-0.41,0.164-0.821,0.492-0.821,0.739c0,0,0,0,0,0.082l-0.492,0.492l-0.246-0.246c-0.41-0.328-0.821-0.575-1.313-0.739
							c0.246-0.164,0.328-0.41,0.41-0.739c0-0.492-0.164-0.328-0.41-0.082c-0.246,0.246-0.492,0.328-0.657,0.575
							c-0.41-0.164-0.903-0.246-1.313-0.246v-4.761H45.466z M44.891,25.834c0.082,0.164,0,0.328-0.082,0.41l0,0
							c-0.164,0.164-0.657-0.41-0.739,0.082c-0.164,0.492,0.328,0.246,0.328,0.328c0.246,0.328,0.575,0.492,0.985,0.575
							c0.328,0,0.821,0,0.821,0.328c0,0.164,0.41,0.164,0.492,0.328c0,0.246,0.246,0.657,0.41,0.575
							c0.164-0.082,0.41,0.082,0.492,0.246c0.082,0.164,0,0.246-0.082,0.41c-0.246,0.246,0.246,0.164,0.328,0.657
							c0.082,0.492-0.41,0.164-0.492,0.492c-0.164,0.246-0.328,0.41-0.492,0.657c-0.082,0.082,0.082,0.246,0.164,0.164
							c0.082-0.082,0.246-0.328,0.492-0.328c0.246,0,0.492,0.903,0.739,0.985c0.246,0.082,0.164,0.41,0.246,0.492
							c0.082,0.082-0.41,0-0.328,0.164c0.082,0.164,0.575,0.246,0.575,0.492c-0.082,0.246-0.246,0.492-0.575,0.492
							c-0.246,0-0.657-0.575-0.657-0.41c0,0.164,0.164,0.657,0.41,0.657c0.246,0,0.821-0.246,0.575,0.082
							c-0.246,0.328-0.164,0.821-0.328,0.821s-0.246,0-0.082,0.246c0.082,0.246,0,0.492-0.164,0.739
							c-0.164,0.164-0.575,0-0.575-0.082c0-0.082,0.492-0.082,0.492-0.328c0-0.246-0.246-0.328-0.739-0.164
							c-0.246,0.082-0.328-0.082-0.492-0.082c-0.164,0-0.657,0.575-0.657,0.657c0,0.082,0,0.246,0,0.41
							c0,0.328-0.082,0.575-0.246,0.821c-0.328,0.082-0.575,0.082-0.903,0.082c-1.313,0-2.627-0.575-3.611-1.395
							c0.164-0.082,0.41-0.164,0.657-0.164c0.246,0.082,0.328-0.082,0.492-0.164c0.164-0.082,0.575,0.164,0.821,0
							c0.246-0.164,0.821-1.231,0.739-1.477c-0.082-0.246,0.575-0.657,0.492-0.739c-0.082-0.082-0.164,0.082-0.164,0
							c0-0.082,0.164-0.082,0-0.41c-0.164-0.328-0.41-0.164-0.575-0.164c-0.246-0.164-0.657-0.246-0.739-0.164
							c-0.082,0.082-0.328-0.164-0.41-0.082c-0.082,0-0.246,0.082-0.246,0.246c-0.082,0.164,0.082,0.328,0.082,0.492
							c-0.082,0.328-0.575,0.575-0.575,0.821c0,0.246-0.246,0.082-0.328,0.164s0,0.246-0.164,0.246s-0.41,0.41-0.575,0.739
							c-0.246-0.328-0.492-0.739-0.739-1.067c0.164-0.082,0.328-0.164,0.41-0.082c0.246,0.164,1.231-1.56,1.067-2.052
							c-0.164-0.492-0.41-0.164-0.657-0.082c-0.246,0.082-0.246-0.164-0.164-0.246c0.082-0.082,1.149-0.082,0.575-0.41
							c-0.246-0.164-0.903-0.164-0.821-0.41c0.082-0.246,0.41,0,0.492,0c0.41,0.164,0.657-0.657,0.903-0.657
							c0.41,0,0.246-0.821-0.164-0.575c-0.41,0.246-0.575,0.164-0.739,0.41c-0.164,0.246-0.575,0.575-0.575,0.246
							c0-0.164,0.903-0.657,1.067-0.903c0.164-0.164,0.328-0.41,0.41-0.657c0.082-0.246,1.231-0.41,1.477-0.575
							c0.164-0.164,0.328-0.41,0.328-0.657s-0.328-0.164-0.41-0.328c-0.082-0.164,0.41,0,0.41-0.246c0-0.246-0.41,0-0.575-0.164
							c0-0.082,0-0.082,0.082-0.164C43.824,25.917,44.317,25.834,44.891,25.834h0.164 M44.153,1.375v4.761
							C37.997,6.3,32.087,8.762,27.573,13.03l-3.365-3.365C29.543,4.494,36.684,1.539,44.153,1.375 M23.14,10.65l3.365,3.365
							c-4.268,4.514-6.731,10.424-6.895,16.58H14.85C15.097,23.126,18.052,15.985,23.14,10.65"/>
					</g>
				</g>
			</g>
		</g>
	</g>
</g>
<g id="guides" display="none">
</g>
</svg>
