<svg id="Layer_1" data-name="Layer 1" xmlns="http://www.w3.org/2000/svg" viewBox="20 91.92 210 66.12"><defs><style>.cls-1{fill:#83989f}</style></defs><path class="cls-1" d="M132.56 143a10.51 10.51 0 00-3-5.07 15.43 15.43 0 00-2.31-1.88 22.56 22.56 0 00-6.55-2.93 27.09 27.09 0 00-4.29-.83c-1-.12-2-.17-2.92-.21a31.5 31.5 0 00-4 .21 23.59 23.59 0 00-2.65.43 23.1 23.1 0 00-7.19 2.71 15 15 0 00-4.22 3.5A9.71 9.71 0 0093.1 144a8.62 8.62 0 00.45 4 11 11 0 002.37 3.75 14.35 14.35 0 002.93 2.44 22.74 22.74 0 004.62 2.26 29 29 0 007.61 1.51c.09 0 .19 0 .26.08h3.22c.06-.08.13-.08.23-.08.76-.06 1.51-.13 2.27-.25a24.65 24.65 0 004.41-1 20.11 20.11 0 007.31-3.9 12.48 12.48 0 003.14-3.92 8.77 8.77 0 00.64-5.89zm-13.34 3.94A5.17 5.17 0 01117 149a8.34 8.34 0 01-4.2 1 8.2 8.2 0 01-3.63-.83 5.53 5.53 0 01-2.48-2.16 3.65 3.65 0 010-3.92 6.12 6.12 0 013.77-2.68 8.79 8.79 0 013.31-.31 7.66 7.66 0 014.16 1.54 4.76 4.76 0 011.55 2 3.66 3.66 0 01-.26 3.29zM43.62 150a5.27 5.27 0 00-.93-2.29 6.91 6.91 0 00-2.51-2.13c-.42-.21-.84-.38-1.27-.57v-.06a.69.69 0 01.19-.07 4.88 4.88 0 002.59-2.56 6.81 6.81 0 00.55-2.08 7.47 7.47 0 00-.17-2.71 5.4 5.4 0 00-2.58-3.18 10.39 10.39 0 00-2.67-1.08 14 14 0 00-3.27-.53H20v25.06a1 1 0 00.55.06h9.75c1.38 0 2.74.06 4.1 0a20.37 20.37 0 002.45-.26 10.1 10.1 0 005-2.25 5.47 5.47 0 001.37-1.88 6 6 0 00.4-3.47zm-14.35-11c0-.19.06-.28.27-.26h2.14a1.79 1.79 0 011.8 1.32 1.86 1.86 0 01-1.73 2.52h-2.21c-.19 0-.28-.06-.27-.27zm4.41 12.53a2.61 2.61 0 01-1.42.4h-2.64c-.35 0-.35 0-.35-.32v-3.47c0-.32 0-.32.31-.32h2.89a2.3 2.3 0 011.8.91 1.87 1.87 0 01-.59 2.74zM229.92 134.91a1.5 1.5 0 00-.24-.8 2.4 2.4 0 00-2.2-1.17 2.33 2.33 0 00-2.17 2.93 2.42 2.42 0 002.78 1.75 2.26 2.26 0 001.83-2 .2.2 0 01.08-.17v-.25c-.09-.08-.08-.2-.08-.29zm-2.36 2.46a2.08 2.08 0 110-4.16 2.09 2.09 0 012.12 2.1 2.13 2.13 0 01-2.12 2.06zM228 142.93a9.47 9.47 0 00-2.91-3.88 20.14 20.14 0 00-5.66-3.27 34.32 34.32 0 00-5.53-1.7c-1.27-.31-2.57-.53-3.86-.72-.62-.1-1.25-.19-1.87-.25s-1.37-.11-2-.19a31.8 31.8 0 00-3.23-.19h-28.36c-.59 0-.53 0-.53.55v24.32c0 .19.06.27.25.25h.2c9.28 0 18.53.1 27.81-.06l1.61-.05 3.37-.27c1-.07 2-.21 2.93-.36a45.46 45.46 0 004.73-.94 31.61 31.61 0 006-2.09 16.79 16.79 0 005.11-3.52 8.35 8.35 0 002-3 6.3 6.3 0 00-.06-4.63zm-20.84 4.32a6.46 6.46 0 01-2.51 1.68 15 15 0 01-3.85 1 25.48 25.48 0 01-4 .24h-2.17c-.38 0-.38 0-.38-.41v-8.94c0-.32 0-.32.34-.32h3.8a22.36 22.36 0 014 .51 12.38 12.38 0 012.48.8 6.55 6.55 0 012.41 1.72 2.66 2.66 0 01-.13 3.72z"/><path class="cls-1" d="M99.85 132.73c-.26.34-.51.65-.75 1-.87 1.08-1.72 2.16-2.6 3.22s-1.77 2.19-2.66 3.27-1.67 2-2.48 3.07l-2.6 3.18a2.08 2.08 0 01-.34.43.7.7 0 00-.22.59v10.06c0 .34 0 .34-.37.34h-11.1c-.38 0-.38 0-.38-.38v-10.18a1.26 1.26 0 00-.36-.91c-.78-.93-1.56-1.87-2.35-2.8q-.94-1.11-1.86-2.22l-2.32-2.78c-.63-.74-1.25-1.47-1.86-2.21s-1.25-1.48-1.85-2.22c-.1-.11-.21-.2-.31-.32h-.07v5.47a.17.17 0 01-.19.17h-8.52c-.53 0-.53 0-.53.53v1.53c0 .42 0 .42.44.42H64.42c.17 0 .25.07.23.23v6c0 .17-.08.22-.23.22a1.71 1.71 0 00-.32 0h-7.53c-.44 0-.44 0-.44.46v1.81a.24.24 0 00.29.29h9.18c.19 0 .28.07.26.26v6.32c0 .19-.09.27-.26.25H45.8c-.55 0-.49 0-.49-.49v-24.15c0-.53 0-.5.49-.5H78a.65.65 0 01.68.4c.8 1.5 1.65 3 2.46 4.47.35.62.67 1.23 1 1.83 0 .1.07.21.17.27s.13-.1.17-.15c.64-1.25 1.3-2.5 2-3.75.49-.93 1-1.87 1.47-2.82.14-.25.31-.25.53-.25h13a.87.87 0 01.37.04zM172.14 133.17v24.19a.67.67 0 000 .2c0 .21-.1.27-.27.25h-12.62a.89.89 0 01-.7-.3c-1.1-1.16-2.22-2.31-3.29-3.49-.89-.94-1.8-1.91-2.71-2.85s-1.78-1.9-2.69-2.84-1.82-1.93-2.72-2.9a5.18 5.18 0 00-.74-.74 1.46 1.46 0 01-.25-.13.33.33 0 00-.47.28 1.11 1.11 0 00.09.48 12.68 12.68 0 01.65 2.93 10.48 10.48 0 01.07 1.48v7.72c0 .32 0 .34-.36.34a.74.74 0 01-.21 0h-12.17c-.54 0-.51 0-.51-.49v-24.09c0-.55 0-.52.51-.52h12.67a.83.83 0 01.68.31c.81.94 1.68 1.87 2.52 2.8 1.19 1.3 2.34 2.61 3.52 3.92.73.83 1.47 1.64 2.21 2.46 1 1.15 2 2.29 3.09 3.44a5.44 5.44 0 00.47.49.76.76 0 00.21.19.45.45 0 00.53 0c.19-.11.17-.32.11-.51-.13-.44-.32-.85-.42-1.29-.15-.66-.3-1.3-.43-2a3 3 0 010-.6v-9c0-.19.08-.28.26-.27h12.5c.49.06.47.03.47.54zM229.45 127.6c-.24-.32-.51-.66-.76-1-1.43-1.93-2.89-3.86-4.35-5.79a.28.28 0 010-.44 41.8 41.8 0 003.29-3.61c.36-.42.68-.87 1-1.31.18-.25.17-.26-.1-.44l-.78-.43c-.39-.23-.39-.25-.68.11-.45.55-1 1-1.45 1.56-.7.75-1.46 1.47-2.18 2.19a3.87 3.87 0 01-.55.45c-.06 0-.09-.07-.11-.11l-3.32-4.39c-.75-1-1.53-2-2.29-3l-2.82-3.73c-.24-.34-.24-.36.08-.58a32.49 32.49 0 002.88-2.26 11.69 11.69 0 002.8-3.29 5.38 5.38 0 00.62-3.29 6.88 6.88 0 00-1.34-3.45 5.86 5.86 0 00-5.77-2.49 6.68 6.68 0 00-4.4 2.46 6.24 6.24 0 00-1.3 5.73 14.93 14.93 0 002.16 4.54c.39.57.79 1.12 1.25 1.67-.16.09-.27.17-.38.24-1.38.89-2.75 1.78-4.09 2.73a19.62 19.62 0 00-3.65 3.27 10.42 10.42 0 00-2.43 5.93 10 10 0 00.15 2.84 8.09 8.09 0 002.58 4.35 10.66 10.66 0 004 2.2 8.63 8.63 0 004.37.17 16 16 0 004.54-1.93 43.53 43.53 0 005.93-4.28c.28-.25.3-.25.51.06 1.34 1.79 2.67 3.59 4 5.39a.53.53 0 00.48.23h1.79c.12 0 .21 0 .33-.06s.03-.16-.01-.24zm-18.72-25.42A10.58 10.58 0 01210 100a6.41 6.41 0 010-.89 5.17 5.17 0 011-3.25 3.43 3.43 0 012.07-1.29 4.9 4.9 0 012.91.17 3.77 3.77 0 011.84 1.61 5.07 5.07 0 01.77 2.56 3.87 3.87 0 01-.34 1.74 8.9 8.9 0 01-2.34 2.93 19.62 19.62 0 01-2.46 1.8l-.12.06c-.45.28-.43.28-.74-.13a24.56 24.56 0 01-1.86-3.13zm9.56 19.14c-.89.74-1.8 1.4-2.74 2A19.08 19.08 0 01212 126a8.05 8.05 0 01-3 .3 6.44 6.44 0 01-3.63-1.59 7.31 7.31 0 01-2.24-3.5 6.1 6.1 0 01-.24-1.47 8.52 8.52 0 01.3-2.79 8.09 8.09 0 011.87-3.06 20.69 20.69 0 013.07-2.52l4.28-3c.15-.12.24-.13.37 0l3.66 4.94c1.38 1.84 2.74 3.68 4.11 5.53.32.42.62.85 1 1.31-.45.49-.84.85-1.26 1.17zM40.16 116.19a8.16 8.16 0 00-2.24-4.28 9.81 9.81 0 00-3.82-2.31c-.19-.07-.4-.13-.59-.21l.4-.27a6.28 6.28 0 001.91-1.93 9.44 9.44 0 001.4-4.71 10.45 10.45 0 00-.32-3.11 7.54 7.54 0 00-3.33-4.71A10.08 10.08 0 0028.16 93h-7.25c-.55 0-.51 0-.51.5v34.14c0 .17.07.23.24.23h8.14a20.77 20.77 0 002.61-.15 12.72 12.72 0 004.45-1.4 8.57 8.57 0 003-2.77 9.53 9.53 0 001.47-4.55 10.55 10.55 0 00-.15-2.81zm-17.83-7.55a1.41 1.41 0 000-.29V95.48c0-.3 0-.32.34-.32 2.08 0 4.16-.07 6.23 0a6.16 6.16 0 015.16 3 7.11 7.11 0 011 4.58 6.82 6.82 0 01-2 4.28 6.16 6.16 0 01-3.22 1.6 8.24 8.24 0 01-1.87.17h-5.4c-.17.09-.24.02-.24-.15zm15 13.08a7 7 0 01-2.78 2.82 8.7 8.7 0 01-3.75 1.09c-.63.06-1.23.06-1.86.06h-6.31c-.15 0-.23-.07-.21-.23s0-.2 0-.32V111.7a1.32 1.32 0 010-.28c0-.3 0-.3.32-.3 2.79 0 5.57-.08 8.35 0a7.43 7.43 0 015.55 2.63 6.61 6.61 0 011.49 3.33 7.13 7.13 0 01-.79 4.64zM88 109.09a15 15 0 00-.29-2.31 18.18 18.18 0 00-1.85-5.32A16.49 16.49 0 0082.38 97a15.93 15.93 0 00-3.7-2.44 17.2 17.2 0 00-7-1.57h-8.1c-.4 0-.4 0-.4.4v34.13c0 .34 0 .34.34.34h3c1.94 0 3.87.07 5.8-.08a17.7 17.7 0 003.4-.53 16.55 16.55 0 004.3-1.78 14.67 14.67 0 003.94-3.33 16.82 16.82 0 002.85-4.9 19.49 19.49 0 001.19-6.46v-1.69zm-3.79 8.31a14.78 14.78 0 01-2.46 3.71 13.12 13.12 0 01-5.28 3.56 15.8 15.8 0 01-3.39.81 19.32 19.32 0 01-2.4.14H65.8c-.17 0-.26-.06-.24-.25V95.65c0-.51 0-.47.47-.47h5.24a16.14 16.14 0 014.47.68 13.44 13.44 0 017.74 6.06 15.78 15.78 0 012 5.47 17.48 17.48 0 01.23 4 17.07 17.07 0 01-1.53 6.01zM121.91 117a8.35 8.35 0 00-.8-2.91 8.74 8.74 0 00-4.47-4.17 12.47 12.47 0 00-1.45-.51.08.08 0 010-.07.83.83 0 01.18-.13 5.8 5.8 0 001.76-1.58 8.65 8.65 0 001.75-4.84 12.08 12.08 0 000-2.08 11.23 11.23 0 00-.59-2.45 7.47 7.47 0 00-3.58-4 10.84 10.84 0 00-5.2-1.27h-6.91c-.59 0-.53 0-.53.51v34.13c0 .15.06.23.21.23h8.31a20 20 0 003-.23 11.58 11.58 0 004.86-1.91 7.94 7.94 0 002.88-3.79 10.61 10.61 0 00.58-4.93zM104 108.41V95.69a1.71 1.71 0 000-.32c0-.15.09-.21.23-.21h6.24a6.15 6.15 0 014.07 1.61 6.47 6.47 0 012.18 4.18 7 7 0 01-1.33 5.34 6.16 6.16 0 01-3.91 2.4 11.45 11.45 0 01-2.26.15h-4.78c-.44.02-.44.02-.44-.43zm14.38 14.27a7 7 0 01-3.21 2.37 9.55 9.55 0 01-2.5.58 11.24 11.24 0 01-1.42.06h-6.89c-.19 0-.3-.06-.28-.26v-14.07c0-.17.07-.26.26-.24h.11c2.73 0 5.46-.06 8.18 0a7.56 7.56 0 014.94 1.87 6.7 6.7 0 012.23 4.14 7 7 0 01-1.42 5.55zM189.65 127.87h-1.21c-.21 0-.31-.08-.29-.29a1.7 1.7 0 000-.32v-16.82c0-.59.06-.53-.55-.53h-20.14c-.62 0-.56-.06-.56.54v16.91c0 .55 0 .51-.52.51h-1.24c-.21 0-.29-.08-.29-.29a1.7 1.7 0 000-.32V93.53c0-.58 0-.53.53-.53h1.25c.17 0 .27.06.27.25a1.71 1.71 0 000 .32V107a1.31 1.31 0 000 .28c0 .34 0 .36.36.36h20.46c.43 0 .43 0 .43-.45V93.65c0-.74-.09-.65.64-.65h1.12c.19 0 .29.06.27.25v34.07c0 .6.07.55-.53.55zM135 91.92a.18.18 0 00-.16.12c-.34.85-.68 1.7-1 2.53-1.4 3.51-2.82 7-4.22 10.53l-3.06 7.61c-1.12 2.8-2.26 5.6-3.39 8.42-.85 2.14-1.72 4.3-2.58 6.45-.11.25-.09.29.17.29h1.78a.35.35 0 00.36-.29c1.1-2.7 2.18-5.43 3.26-8.14.38-1 .77-1.91 1.15-2.87.08-.21.19-.34.44-.3a1.92 1.92 0 00.24 0h14a2.62 2.62 0 00.28 0 .33.33 0 01.38.26c.68 1.7 1.38 3.41 2.07 5.11q1.22 3 2.38 5.92a.41.41 0 00.45.31h1.48a.71.71 0 00.45-.06q-7.27-17.97-14.48-35.89zm6.49 22.34h-12.83c-.55 0-.55 0-.34-.49 1.71-4.28 3.43-8.56 5.13-12.84.44-1.08.87-2.15 1.31-3.25a.31.31 0 01.19-.23c.2.53.43 1 .64 1.57l4.07 10.15c.62 1.53 1.25 3.06 1.87 4.62a1 1 0 00.08.22c.07.17 0 .25-.17.25zM45.15 107.52c0 .3 0 .3.33.3H59a.25.25 0 01.29.27v1.53c0 .21-.12.29-.31.29H45.65c-.53 0-.5 0-.5.51v14.72c0 .61 0 .55.53.55h13.46c.57 0 .51-.06.51.53v1.36c0 .21 0 .31-.26.29h-16c-.43 0-.43 0-.43-.44v-33.9c0-.58-.06-.53.51-.53h15.69c.53 0 .49 0 .49.48v1.43c0 .19 0 .29-.24.27H45.67c-.55 0-.52 0-.52.49zM162.22 95h-8.35c-.15 0-.22.08-.22.23a2.16 2.16 0 010 .36v31.72c0 .6.07.55-.55.55h-1.25c-.19 0-.29-.06-.27-.25V95.44c0-.43 0-.43-.45-.43H143c-.51 0-.47 0-.47-.47v-1.18c0-.4 0-.36.37-.36h19.23c.57 0 .52 0 .52.51v1c0 .3.04.49-.43.49zM228.71 135.72a.72.72 0 00-.11-.34c-.13-.13-.1-.23 0-.36a.69.69 0 00-.53-1.11H227c-.21 0-.28.09-.26.28v2.06c0 .13 0 .29.19.29s.2-.14.2-.29v-.07c0-.8 0-.8.8-.74.3 0 .4.11.42.41a2 2 0 000 .44.32.32 0 00.29.25c.09 0 .17 0 .13-.14a2.57 2.57 0 01-.06-.68zm-.68-.62a3 3 0 01-.79 0c-.08 0-.14 0-.14-.12v-.6a.14.14 0 01.16-.15h.68c.28 0 .41.11.45.36a.43.43 0 01-.39.51z"/></svg>