<svg data-name="Layer 1" xmlns="http://www.w3.org/2000/svg" viewBox="20 86.577 210.027 86.886"><path d="M201.49 124.34c-3.55.82-12.92 1.28-12.92 1.28l-1.16 3.7a53.14 53.14 0 018-.06 1.17 1.17 0 011.22 1.21 20.8 20.8 0 01-.09 2.73 1.34 1.34 0 01-1.22 1c-1.3.21-10.1.61-10.1.61l-1.43 4.79s-.51 1.09.67.79 10.32-2.06 11.53-1.82a3.31 3.31 0 012.3 3.64c-.48 1.91-9.7 7.8-15.29 7.4 0 0-2.94.19-5.4-3.79-2.36-3.79.82-10.92.82-10.92s-1.42-3.34-.36-4.55a4.53 4.53 0 012.43-.67l2.31-4.68a5.31 5.31 0 01-4.1-1.73c-1.39-1.82-1.51-2.61-.42-3.1s11.83-2.51 19.17-2.27c0 0 2.58-.3 4.86 4.16 0 0 1 1.82-.79 2.24m-27.7 18c-.91 2.22-3.43 4.55-6.46 3.13s-8-11.41-8-11.41-1.82-3.7-2.19-3.58c0 0-.39-.73-.6 3.34s.06 11.89-1.61 13.13a2.94 2.94 0 01-4.37-.72c-.85-1.43-1.21-4.86-.73-10.84s1.93-12.35 3.66-14.35 3.28-.54 3.83 0c0 0 2.33 2.13 6.28 8.41l.66 1.15s3.58 6 4 5.95c0 0 .3.3.54.06.37-.09.25-2 .25-2a102.41 102.41 0 00-4-17.39 5.47 5.47 0 01-.15-2.73c.3-1.21 1.61-.61 1.61-.61s5 2.43 7.49 10.62.79 15.63-.12 17.84m-24.73-21c-.48.85-.69 2-2.79 2.36 0 0-20.33 1.43-21.33 2.86a.61.61 0 00.43 1.06c1.15.24 5.76.85 7.95 1 2.36 0 10.31.06 13.23 3.64 0 0 1.66 1.7 1.6 5.55s-.75 5.34-2.3 6.77-15.38 7.52-24.27-2c0 0-4.07-4.55 1.42-8 0 0 4-2.43 14.05.39 0 0 3 1.09 2.91 2.21s-2.52 2.43-5.91 2.37a11.8 11.8 0 01-5.22-1.39c.45.15-3.55-2-4.8-.52s-.91 2.12.31 2.94c3 1.76 14.95 1.13 18.5-2.85 0 0 1.43-1.61-.72-2.91s-8.32-2-10.71-2.07-10.81 0-12.08-2.21c0 0-1.21-1.58.12-5.89 1.4-4.55 11.32-6.31 15.63-6.67 0 0 11.83-.49 14 1.94a1.58 1.58 0 01-.06 1.37M115.57 148c-1.43 1.06-4.46.6-5.34-.61-.85-1.06-1.15-5.25-1-11.83.21-6.74.3-15 1.82-16.33s2.42-.15 3 .73a7 7 0 011.52 4c.18 2.12.7 13 .7 13s.66 9.95-.7 11m3-35.5c-4.18 1.42-7 1-9.46-.09-1.07 1.91-1.7 2.48-2.49 2.61-1.22.12-2.28-1.82-2.43-2.43a3.18 3.18 0 01-.12-3.13 7 7 0 01-2.12-6.88c.54-2.25 4.55-10.68 16.68-11.68 0 0 6-.43 7 2.73h.18s5.77 0 5.65 5.15-6.38 11.59-12.87 13.81M124 97.76c-3.82.61-9.71 5.71-12.53 9.92 4.34.79 11.93.49 15.32-6.37 0 0 1.61-4.31-2.79-3.55m-16.78 3.34c-1.21 2-1.27 3.16-.69 3.94a30.05 30.05 0 017.73-8.04 9 9 0 00-7 4.13m103.37 46.63a90.74 90.74 0 00-6.52 24.21s-.3 2-2 1.37-4.4-3.34-5-7.19c-.61-5 1.64-13.53 6.22-23.3-1.33-2.13-2.27-5.28-1.52-9.71 0 0 1.22-8.19 9.41-15.6 0 0 1-.81 1.52-.54s.39 2.91-.16 4.25-4.12 7.58-4.12 7.58-2.28 4.31-1.64 7.68c4.31-6.62 14.11-20 20.18-15.78 3.85 2.73 3.85 11.53 1 16.63-2.28 4-8.71 12.38-17.3 10.43m12.62-20.63a59 59 0 00-9.4 13.29 15.46 15.46 0 007.58-3.15c1.61-1.43 5.31-5.28 4.74-10.38 0 0-.37-2.67-2.92.24M87.35 151.31a49.53 49.53 0 01-26.39.31c-.16 2.24-.4 3.18-.76 3.55s-4 2.48-5.89-.37c-.85-1.36-1.27-3.82-1.52-6.07-12.43-5.64-18.2-13.95-18.38-14.26a5 5 0 01-.3-6.88c2.64-3.28 11.37-6.59 19.2-7.89.3-6.68 1-11.83 2-14.11 1.13-2.73 2.55-.3 3.83 1.52 1 1.36 1.66 7.22 1.72 11.89a50.83 50.83 0 0113.87 1.21c7.46 1.28 12.44 5.1 12 9.41a6.93 6.93 0 01-5.73 6.13 10.54 10.54 0 01-3.94-1c-1.7-.79-.16-1.52 1.82-2.37 2.18-1.06 1.7-2.12 1.7-2.12-.79-2.43-10.47-4-20.09-4 0 5.31.21 14.11.36 19.24a54.64 54.64 0 0011.78 1s24.57-.7 25.27-16.38-24.6-30.81-43.25-35.54c-18.63-4.89-29.19-1.43-30.1-1s-.09.66-.09.66a20.43 20.43 0 012.82.76c1.82.61.36 1.52.36 1.52-3.18 1.09-6.73.45-7.43-1s.46-2.73 1.82-4.64S24.76 89 24.76 89C47.82 81 76 95.37 76 95.37c26.34 13.29 30.83 28.91 30.34 35s-2.73 16.08-19 21m-50.66-21.75a1.86 1.86 0 00-.78 3.16 42 42 0 0016.68 10.61c.67-9.1.61-12.34.61-16.93-8.92.61-14.08 2.07-16.51 3.16" fill="#83989f"/></svg>