<?xml version="1.0" encoding="utf-8"?>
<!-- Generator: Adobe Illustrator 26.1.0, SVG Export Plug-In . SVG Version: 6.00 Build 0)  -->
<svg version="1.1" xmlns="http://www.w3.org/2000/svg" xmlns:xlink="http://www.w3.org/1999/xlink" x="0px" y="0px"
	 viewBox="0 0 336.331 60" enable-background="new 0 0 336.331 60" xml:space="preserve">
<g id="Layer_1">
	<g>
		<path fill-rule="evenodd" clip-rule="evenodd" fill="#82979E" d="M25.432,21.692c-1.336,1.603-2.778,3.526-2.778,6.411
			c0,5.396,3.099,9.617,8.655,9.618c7.373,0,8.815-7.534,8.815-11.113c0-0.417-0.022-0.816-0.066-1.197l0.001-0.001
			c1.956-0.301,3.908-1.12,5.741-2.315l0.009,0.006c0.09,3.587,0.193,7.059,0.193,8.636c-0.053,4.969,0.321,5.557,1.87,5.557
			c1.656,0,2.565-3.366,4.113-6.572c1.817-4.007,3.74-8.014,4.916-8.014c2.191,0-1.763,14.8,3.526,14.8
			c3.739,0,9.297-15.013,11.701-15.013c1.87,0-1.924,15.014,2.243,15.013c3.045,0,8.228-15.28,9.991-15.28
			c1.817,0-1.923,15.28,3.473,15.28c4.862,0,8.816-12.555,10.152-12.555c0.643,0,1.845,1.681,2.702,3.986l-0.007,0.061
			c-1.687,2.102-2.748,4.119-2.748,5.624c0,1.923,1.496,2.885,2.992,2.885c2.244,0,4.435-2.404,4.435-5.877
			c0-0.727-0.062-2.8-0.878-4.876l0.005-0.021c3.358-3.114,7.701-5.826,10.329-6.268c-1.496,1.71-4.22,3.205-4.22,8.067
			c0,5.236,4.007,9.243,9.136,9.243c7.213,0,8.762-7.693,8.762-10.686c0-1.089-0.141-2.072-0.391-2.946l-0.007,0.011
			c2.45-1.153,4.302-2.781,4.992-2.781c1.496,0,0.909,4.541,0.909,9.243c0,3.526-0.535,7.159,2.084,7.159
			c1.977,0,2.938-3.9,4.915-7.373c1.924-3.419,4.007-8.068,4.809-8.068c1.069,0,0.642,7.159,0.642,8.548
			c0,1.763-0.321,7.32,3.312,7.32c2.457,0,7.052-6.892,7.053-7.8c0-0.481,0-0.588-0.374-0.588c-0.374,0-3.206,4.648-4.328,4.648
			c-1.603,0-0.588-5.931-0.588-10.312c0-1.923,0.267-6.198-2.939-6.198c-4.06,0-8.014,11.434-9.243,11.434
			c-1.176-0.001,1.709-11.006-3.366-11.006c-2.064-0.001-5.133,2.802-8.481,4.242l0.019,0.007c-1.233-2.42-3.446-3.662-5.59-3.662
			c-1.55,0-2.725,1.176-2.725,2.404c0,1.656,1.336,3.9,4.435,3.9c0.853,0,1.681-0.138,2.471-0.362l0.033,0.014
			c0.281,0.909,0.434,1.818,0.434,2.538c0.001,2.832-1.923,6.518-5.61,6.518c-2.885,0-5.45-3.045-5.45-6.785
			c0-6.091,3.686-7.106,3.687-8.335c0-0.534-0.427-0.642-1.229-0.642c-4.122,0-9.785,3.407-14.039,7.333l-0.016-0.003
			c-0.145-0.258-0.303-0.511-0.478-0.758c-4.114-5.877-2.511-7.16-3.579-7.159c-1.336-0.001-7.32,16.296-9.671,16.296
			c-3.099,0,2.565-15.708-3.472-15.708c-4.755,0-7.48,12.342-9.297,12.342c-1.763-0.001,1.763-12.342-3.366-12.342
			c-3.686,0-9.189,14.746-11.594,14.746c-2.03,0,1.87-14.532-2.832-14.532c-4.488,0-8.014,11.38-9.136,11.38
			c-0.938,0-0.736-3.555-0.7-10.078l0.016-0.046c3.68-3.955,6.24-9.373,6.241-14.507c0-2.404-1.176-4.274-3.42-4.274
			c-4.381,0-6.946,6.945-6.946,14.586c0,1.666,0.038,3.793,0.088,5.978l-0.013,0.027c-2.033,1.495-3.948,2.277-5.044,2.277
			c-0.304,0-0.638,0.003-0.99,0.005l0.003,0.001c-1.01-3.293-3.726-4.762-5.691-4.762c-1.549,0-2.778,1.442-2.778,2.672
			c0,1.813,1.609,3.728,6.68,3.841l0.012,0.011c0.134,0.659,0.201,1.306,0.201,1.864c0,2.832-2.083,6.679-5.77,6.679
			c-3.206,0-5.61-3.633-5.61-7.64c0-5.129,3.419-6.732,3.419-7.106c0-0.213-0.053-0.428-0.16-0.428
			c-3.392,0-8.925,3.735-14.14,9.157l-0.009-0.003c-0.589-4.486-1.292-9.789-1.292-15.993c0-8.976,1.657-10.152,1.657-11.327
			C16.242,0.214,16.082,0,15.174,0C13.143,0,0,5.931,0,19.074c0,10.108,5.562,14.601,9.144,17.329v0.001
			c-3.841,5.703-6.58,11.974-6.58,17.452C2.564,56.955,3.793,60,6.091,60c3.633,0,10.579-7.694,10.579-23.455
			c0-2.07-0.268-4.43-0.612-7.097l0.003-0.01C19.175,26.156,22.511,23.448,25.432,21.692L25.432,21.692z M304.925,23.289
			l0.007-0.019c-0.679-1.308-1.64-2.325-2.794-2.325c-0.534-0.001-1.015,0.534-1.015,0.961c-0.001,0.962,0.908,1.55,2.297,1.55
			C303.923,23.455,304.426,23.395,304.925,23.289L304.925,23.289z M189.349,35.332c0.672-0.951,1.373-1.883,2.093-2.791l0.038-0.084
			c-0.876-4.661-1.81-9.155-1.81-12.475c0-9.457,4.114-16.189,4.114-17.631c0.001-0.962,0.161-1.122-0.533-1.122
			c-0.482,0-9.885,4.007-9.885,18.166C183.366,25.102,186.024,32.088,189.349,35.332L189.349,35.332z M188.608,36.406
			c-1.326-1.008-2.559-2.74-4.441-4.028c-1.587-1.087-5.773,0.091-9.403,0.75l-0.007,0.006c-0.316,2.093-1.037,4.16-1.756,4.16
			c-0.47,0-0.678-1.655-1.265-3.58l-0.036-0.024c-1.622,0.29-2.996,0.506-3.828,0.506c-2.511,0-8.281-1.122-8.281-4.916
			c0-2.137,2.404-2.992,4.702-2.992c2.617,0,6.785,1.87,7.8,3.9c0.267-3.633-2.351-5.611-2.351-6.198
			c0-0.587,2.832-1.656,3.099-1.656c1.122-0.001,2.084,5.129,2.084,8.762c0,0.172-0.005,0.35-0.014,0.532l0.003,0.003
			c2.875-0.574,5.967-1.181,7.972-0.908c-1.923-2.725-3.366-6.465-3.366-11.647C179.519,5.931,192.609,0,194.639,0
			c0.908,0,1.122,0.214,1.122,0.748c0,1.175-1.71,2.351-1.71,11.327c0,6.209,0.703,11.515,1.292,16.004h-0.001
			c5.217-5.426,10.755-9.166,14.149-9.166c0.107,0,0.161,0.214,0.16,0.427c0,0.374-3.419,1.977-3.419,7.107
			c0,4.007,2.457,7.64,5.663,7.64c3.633,0,5.717-3.847,5.717-6.678c0-0.561-0.067-1.211-0.203-1.872l-0.004-0.004
			c-5.076-0.112-6.686-2.027-6.686-3.841c0-1.229,1.229-2.671,2.831-2.671c1.922,0,4.629,1.468,5.638,4.76
			c0.351-0.003,0.685-0.005,0.988-0.005c1.097,0,3.015-0.784,5.051-2.282l0.006-0.013c-0.05-2.188-0.089-4.319-0.089-5.987
			c0.001-7.64,2.565-14.586,6.946-14.586c2.244,0,3.419,1.87,3.419,4.274c0,5.133-2.561,10.553-6.241,14.507l-0.015,0.038
			c-0.036,6.527-0.238,10.086,0.7,10.086c1.122,0,4.648-11.38,9.136-11.38c4.703,0,0.855,14.533,2.832,14.533
			c2.404-0.001,7.907-14.746,11.594-14.747c5.129,0,1.603,12.342,3.366,12.342c1.817,0,4.541-12.342,9.296-12.341
			c6.037,0,0.374,15.708,3.473,15.708c2.351,0,8.335-16.296,9.67-16.296c1.069-0.001-0.534,1.282,3.58,7.159
			c0.175,0.247,0.333,0.5,0.478,0.758l0.019,0.004c4.26-3.926,9.936-7.334,14.088-7.334c0.748,0,1.176,0.107,1.176,0.642
			c0,1.229-3.687,2.244-3.686,8.334c-0.001,3.74,2.565,6.785,5.45,6.785c3.686,0,5.61-3.686,5.61-6.518
			c0-0.719-0.152-1.628-0.434-2.535l-0.023-0.012c-0.778,0.221-1.591,0.357-2.428,0.357c-3.152,0-4.488-2.245-4.488-3.9
			c0-1.229,1.175-2.404,2.725-2.404c2.138,0,4.346,1.236,5.581,3.644l0.01,0.002c3.34-1.443,6.4-4.234,8.46-4.234
			c5.076,0,2.191,11.007,3.366,11.007c1.282,0,5.183-11.434,9.243-11.434c3.206,0,2.938,4.274,2.938,6.198
			c0,4.382-1.015,10.312,0.588,10.312c1.122,0,3.953-4.648,4.327-4.648c0.373,0,0.427,0.106,0.427,0.588
			c0,0.908-4.594,7.8-7.106,7.8c-3.633,0-3.312-5.556-3.312-7.32c0-1.389,0.427-8.548-0.641-8.548c-0.801,0-2.885,4.649-4.809,8.068
			c-1.976,3.472-2.938,7.373-4.915,7.373c-2.618,0-2.083-3.633-2.084-7.159c0-4.702,0.588-9.243-0.908-9.243
			c-0.69,0-2.542,1.628-4.977,2.781l-0.004,0.008c0.247,0.869,0.385,1.846,0.385,2.928c0.001,2.992-1.549,10.686-8.762,10.686
			c-5.129,0-9.136-4.007-9.136-9.243c0-4.862,2.725-6.358,4.274-8.067c-2.657,0.443-7.011,3.153-10.376,6.266l-0.009,0.032
			c0.813,2.074,0.874,4.142,0.874,4.869c0,3.473-2.191,5.878-4.435,5.877c-1.496,0-2.992-0.962-2.992-2.885
			c0-1.51,1.066-3.533,2.763-5.641l0.003-0.019c-0.858-2.318-2.066-4.011-2.711-4.011c-1.336,0-5.236,12.555-10.151,12.555
			c-5.397,0-1.657-15.28-3.473-15.28c-1.763,0-6.946,15.28-9.937,15.28c-4.221,0-0.427-15.013-2.298-15.013
			c-2.404,0-7.96,15.013-11.701,15.013c-5.289,0-1.336-14.8-3.526-14.799c-1.176,0-3.099,4.007-4.916,8.014
			c-1.55,3.206-2.457,6.572-4.113,6.571c-1.55,0-1.87-0.588-1.871-5.556c0.001-1.577-0.103-5.047-0.193-8.633l-0.009-0.009
			c-1.831,1.194-3.779,2.012-5.732,2.314l-0.008,0.011c0.042,0.378,0.065,0.774,0.065,1.188c0.001,3.579-1.443,11.113-8.816,11.113
			c-5.557,0-8.602-4.221-8.602-9.617c0-2.885,1.389-4.809,2.725-6.412c-2.917,1.754-6.25,4.458-9.361,7.735l-0.011,0.045
			c0.342,2.658,0.609,5.009,0.609,7.073c0,15.761-6.892,23.455-10.579,23.455c-2.297,0-3.526-3.045-3.526-6.144
			C182.031,48.379,184.768,42.109,188.608,36.406L188.608,36.406z M280.64,30.456l-0.012-0.001c-0.911,1.314-1.465,2.57-1.465,3.632
			c0,1.069,0.214,1.71,0.856,1.71c0.587,0,1.122-0.748,1.122-1.763C281.14,32.824,280.945,31.598,280.64,30.456L280.64,30.456z
			 M229.258,17.55L229.258,17.55c2.262-2.922,4.01-6.816,4.01-11.566c0-2.244-0.16-3.526-1.336-3.526
			C228.922,2.458,229.225,13.612,229.258,17.55L229.258,17.55z M216.85,23.737l0.007-0.014c-0.572-1.342-1.471-2.405-2.716-2.405
			c-0.535,0-0.855,0.321-0.855,0.748C213.286,23.254,214.977,23.626,216.85,23.737L216.85,23.737z M191.747,33.895l-0.013-0.004
			c-4.125,5.423-7.192,11.73-7.192,17.72c0,1.978,0,4.916,2.725,4.916c3.366,0,5.717-5.022,5.717-12.021
			C192.983,41.25,192.414,37.553,191.747,33.895L191.747,33.895z M171.211,32.313l0.019-0.034c-0.929-2.266-2.562-4.444-5.87-4.444
			c-0.908,0-1.389,0.802-1.389,1.764c0,1.763,2.778,2.885,5.343,2.885C169.85,32.484,170.494,32.419,171.211,32.313L171.211,32.313z
			 M125.457,23.289c-0.499,0.106-1.001,0.166-1.503,0.166c-1.443,0-2.298-0.588-2.298-1.55c0-0.427,0.481-0.962,1.016-0.961
			c1.154,0,2.114,1.018,2.794,2.325L125.457,23.289L125.457,23.289z M101.178,30.473c0.303,1.138,0.496,2.357,0.496,3.561
			c0,1.015-0.534,1.763-1.122,1.763c-0.641,0-0.855-0.641-0.855-1.71c0-1.057,0.549-2.307,1.452-3.614H101.178L101.178,30.473z
			 M49.792,17.532c-0.034-3.954-0.33-15.074,2.675-15.074c1.175,0,1.336,1.282,1.336,3.526c0,4.743-1.743,8.634-4.001,11.553
			L49.792,17.532L49.792,17.532z M37.391,23.737c-1.876-0.111-3.571-0.482-3.571-1.671c0-0.428,0.321-0.748,0.855-0.748
			c1.248,0,2.148,1.068,2.72,2.413L37.391,23.737L37.391,23.737z M12.009,32.503c-0.73,0.917-1.44,1.861-2.12,2.823l-0.003,0
			C6.565,32.079,3.9,25.097,3.9,19.394c0-14.158,9.404-18.165,9.885-18.165c0.695,0,0.481,0.161,0.481,1.122
			c0,1.443-4.06,8.174-4.06,17.631c0,3.32,0.935,7.816,1.811,12.478L12.009,32.503L12.009,32.503z M12.28,33.882
			c0.668,3.662,1.237,7.364,1.237,10.623c0,6.999-2.351,12.021-5.717,12.022c-2.725,0-2.725-2.939-2.725-4.916
			c-0.001-5.995,3.071-12.305,7.2-17.731L12.28,33.882L12.28,33.882z"/>
	</g>
</g>
<g id="guides">
</g>
</svg>
