<svg id="Layer_1" data-name="Layer 1" xmlns="http://www.w3.org/2000/svg" viewBox="20.04 107.167 209.995 35.69"><defs><style>.cls-1{fill:#83989f}</style></defs><path class="cls-1" d="M150 136c1.32-5 2.56-10.11 4-15.12 1.13-4 2-8.21 5.23-11.44h-5.91a3.37 3.37 0 00-2.64 1.14 9.14 9.14 0 00-2.12 4.15c-.82 3.09-1.68 6.18-2.51 9.27a.63.63 0 01-.72.54h-4.2c-.69 0-.9-.08-.68-.85 1.2-4.19 2.35-8.41 3.52-12.61.34-1.24.07-1.63-1.19-1.63h-7.26a35 35 0 00-7.65.71c-3 .75-5.34 2.44-6.22 5.62a11.8 11.8 0 001 7.9 1.31 1.31 0 001.39.83c1.46 0 2.9-.26 4.34-.44.59-.07.76-.34.49-.88-.41-.84-.82-1.67-1.19-2.52a8.27 8.27 0 01-.36-5.73c.82-3 3.7-4.63 7.08-4.18 2.52.34 2.64.52 2 3-1.69 6-3.35 11.94-5.06 17.9a17.33 17.33 0 01-3.58 6.83 4.17 4.17 0 01-6.67-.47 12.7 12.7 0 01-1.86-5.05 23.59 23.59 0 01-.06-5c0-1-.08-1.1-1-.85a19.07 19.07 0 00-4.73 2 2.26 2.26 0 00-1.16 2 12.84 12.84 0 001.39 6.59c2.09 4.25 5.35 5.83 10 4.88a31 31 0 009.78-4.29 10.4 10.4 0 004.65-6.2c.44-1.48.9-3 1.31-4.44a.67.67 0 01.79-.59h4.37c.61 0 .65.15.5.69-.94 3.4-1.83 6.8-2.75 10.2a8.84 8.84 0 00-.41 2.93c.07 1 .4 1.31 1.37 1.27a25.27 25.27 0 002.61-.21 11 11 0 004.9-1.73c.75-.53.77-.77.14-1.42a2.8 2.8 0 01-.93-2.8zM39 109.46a1.28 1.28 0 00-1.21.64q-4.44 6.23-8.94 12.42l-1.45 2v-1.1-13.13c0-.66-.16-.84-.82-.82h-5.77c-.64 0-.77.2-.77.79v30.63c0 .57.14.75.73.74h5.86c.62 0 .77-.16.77-.77v-13.4c.28.42.43.62.56.83L36.28 141c.18.27.28.64.74.63h8c0-.41-.22-.6-.38-.83q-4.83-7.28-9.7-14.54A.91.91 0 0135 125q5.47-7.36 10.9-14.78c.14-.19.41-.34.29-.72-2.41-.03-4.82-.01-7.19-.04zM72.94 117.73c-3.36-.84-6.72-.48-10.08 0-.45.07-.45.33-.45.68v5c0 .71.07 1 .9.76a14.54 14.54 0 017.09-.25 3.16 3.16 0 012.39 2.5c.13.45.11.65-.45.55-.8-.14-1.62-.26-2.43-.32a9.7 9.7 0 00-7.64 2.3 7.68 7.68 0 00-1.49 8.87 7.76 7.76 0 008.12 4.06 11.82 11.82 0 004-1.42c-.23 1.19.43 1.17 1.2 1.15h4.73c.62 0 .85-.1.84-.8 0-4.78 0-9.56-.05-14.35s-2.18-7.61-6.68-8.73zM70.19 137a3.6 3.6 0 01-2.67-.52 2.54 2.54 0 01.27-4.42 7.7 7.7 0 014.63-.19c.31 0 .3.3.32.54 0 .54.07 1.1.09 1.45-.21 3.02.41 2.52-2.64 3.14zM203.21 138.8c-1.42-.7-1.59-1-1.18-2.6.82-3.15 1.7-6.29 2.56-9.43.47-1.71 1-3.41 1.42-5.13.55-2.31-.42-3.49-2.75-3.51a11.57 11.57 0 00-4.08.84 18.92 18.92 0 00-4.83 2.68c.1-.58.19-1 .25-1.42.21-1.48-.2-1.89-1.67-1.6a20.41 20.41 0 00-6.69 2.44c-.61.37-.7.73-.28 1.25a2.48 2.48 0 01.38 2.47q-1.91 6.17-3.8 12.35a9.1 9.1 0 00-.58 3.5c.13 1.3.78 1.86 2 1.66a15.62 15.62 0 005.27-2 1.19 1.19 0 00.63-1.32 7 7 0 01.21-2.95c.89-3.1 1.76-6.21 2.74-9.29a5.94 5.94 0 013.23-3.51c.57-.28 1.21-.66 1.79-.19s.29 1.17.11 1.72c-1.32 4.22-2.25 8.55-3.65 12.75a9.44 9.44 0 00-.63 3.06 1.55 1.55 0 001.79 1.75 5.26 5.26 0 001-.09 24.52 24.52 0 005.74-2 4.38 4.38 0 001.06-.76c.34-.25.38-.47-.04-.67zM97.67 108c0-.43-.12-.62-.57-.67a23.66 23.66 0 00-3.15-.16c-5.2.18-8.48 3.3-8.81 8.4 0 .73.18 1.67-.2 2.12s-1.42.17-2.16.18c-.51 0-.64.19-.63.67v3.24c0 2.11 0 2.14 2.12 2.1.71 0 .86.21.85.87v16.11c0 .61.15.79.77.77q2.67-.06 5.34 0c.65 0 .76-.22.75-.79v-8.06-8.14c0-.63.19-.78.78-.75H96c.42 0 .56-.12.56-.55v-4.9c0-.47-.16-.6-.61-.58h-2.89c-.97 0-1.11 0-1.06-1.15.11-2.4 1.23-3.47 3.65-3.46.47 0 .93.06 1.39.11s.7 0 .69-.57c-.09-1.59-.07-3.19-.06-4.79zM227.48 127.1c-2.11-.46-3.46.34-3.89 2.29-.15.67-.12.94.73.78a2.13 2.13 0 012.67 2.29 3.59 3.59 0 01-3.12 3.1h-9.67c-.23 0-.5.05-.62-.21s.09-.38.21-.54.41-.57.61-.85l10-13.69c.29-.4.67-.84.41-1.35s-.82-.33-1.27-.33h-10.15a3.8 3.8 0 00-3.78 2.42 31.21 31.21 0 00-1.53 4.18c-.07.25-.32.58 0 .78s.54-.1.77-.25a1.76 1.76 0 00.43-.43 1.52 1.52 0 011.49-.7h4.55c.58 0 1.46-.31 1.69.2s-.46 1.12-.84 1.61c-2 2.63-4.34 5-6.51 7.55a58.54 58.54 0 00-5.09 6.44c-.51.79-.36 1.09.56 1.18H222.14a2.18 2.18 0 001.95-.93 62 62 0 004.39-6.52 12.77 12.77 0 001.45-3.45 2.82 2.82 0 00-2.45-3.57z"/><path class="cls-1" d="M108.5 133.66c-.28-3.08-.07-6.17-.13-9.26 0-.46.21-.52.58-.52h3.85c.47 0 .68-.09.67-.62v-4.81c0-.46-.14-.61-.6-.6h-3.67c-.64 0-.86-.12-.84-.8.06-1.66 0-3.33 0-5 0-.42-.07-.61-.57-.6h-5.6c-.49 0-.65.12-.64.63v3.58c0 .69.3 1.57-.14 2s-1.27.14-1.93.12-.72.14-.7.69v3.5c0 1.84 0 1.88 1.8 1.82.82 0 1 .23 1 1a81.82 81.82 0 00.15 9.78c.47 3.59 2.3 6.18 5.89 7.26a13.76 13.76 0 004.54.51c0-.32-.19-.43-.3-.58a15.27 15.27 0 01-3.36-8.1zM162 130.44a22.1 22.1 0 007.5-3.21 7.36 7.36 0 003.22-4.11 3.41 3.41 0 00-3.54-4.53 18.9 18.9 0 00-5.06.92c-8.58 2.85-11.7 12-11.23 17.69a5.34 5.34 0 004 5 7 7 0 002.38.3 12.25 12.25 0 003.16-.35 10.94 10.94 0 006.43-4.52c.19-.26.49-.63.21-.94s-.6 0-.88.13a13.63 13.63 0 01-2.86 1.06c-2.6.52-4.43-.61-4.81-3a8.82 8.82 0 01.34-3.27 1.37 1.37 0 011.14-1.17zm1.76-7.26a4.11 4.11 0 011.44-1.6 1 1 0 011.08 0c.33.2.28.57.21.88a21.29 21.29 0 01-1.87 5 .48.48 0 01-.32.27 15.27 15.27 0 01-2.73.72 29.85 29.85 0 012.2-5.27zM59.09 118.05a8.77 8.77 0 00-4 2.24c-.48.49-.83 1.08-1.38 1.74v-3.37c0-.55-.17-.69-.7-.68h-5.6c-.58 0-.65.21-.65.71v22.22c0 .62.23.72.76.71 1.81 0 3.62-.05 5.43 0 .68 0 .81-.2.8-.83 0-3.21.09-6.42 0-9.63-.12-3.6 2.58-5.72 5.3-6.3.67-.14.79-.44.79-1v-5.25c.04-.61-.22-.7-.75-.56zM179.73 138.77a1.62 1.62 0 01-1.19-1.89 8 8 0 01.32-1.62c1.25-4.18 2.52-8.36 3.74-12.55a10.65 10.65 0 00.59-3.17c0-.66-.29-1.07-1-1a18.09 18.09 0 00-7.55 2.53c-.41.26-.58.65-.26 1a2.76 2.76 0 01.29 2.81c-1.14 4.06-2.47 8.07-3.83 12.06a9.52 9.52 0 00-.65 3.06c0 1.68.73 2.46 2.42 2.27a18.16 18.16 0 007.23-2.68c.47-.24.62-.59-.11-.82zM179.82 115.91a16.09 16.09 0 004.4-1.84 2.61 2.61 0 001.28-1.6c.24-.93.5-1.85.75-2.77.18-.72-.17-1.11-.85-1.08a10.31 10.31 0 00-5.3 1.48 2.3 2.3 0 00-.89.94 11.05 11.05 0 00-1 3.3c-.03 1.39.45 1.82 1.61 1.57z"/></svg>