<svg id="Layer_1" data-name="Layer 1" xmlns="http://www.w3.org/2000/svg" viewBox="20.063 96.297 209.952 57.452"><defs><style>.cls-1{fill:#83989f}</style></defs><path class="cls-1" d="M229.84 108.51a4.13 4.13 0 00-7.39-2 5.79 5.79 0 00-.95 3.43v13a3.65 3.65 0 00-.31.24c-.31-.39-.58-.82-.92-1.17a13 13 0 00-3.57-2.59 15.27 15.27 0 00-8.87-1.27 12.9 12.9 0 00-9.4 5.63 18.58 18.58 0 00-3.06 9.44 24.78 24.78 0 001.68 11.5c2.12 5.18 7.16 9 12.77 8.91a14.1 14.1 0 009.26-3.33 26.82 26.82 0 012.4-2.15 9.58 9.58 0 00.2 2.2 4.14 4.14 0 003.24 3.24c2.19.23 3.79-.53 4.5-2.2a8.2 8.2 0 00.59-3.18v-36.38a23.28 23.28 0 00-.17-3.32zM221 135.7a12.77 12.77 0 01-2 7.85 7.75 7.75 0 01-13-.55 13.3 13.3 0 01-1.72-6.37 14.68 14.68 0 011.51-7.77 7.19 7.19 0 016-4.13 7.51 7.51 0 017.53 3.94 12.1 12.1 0 011.68 7.03zM122.28 109.43c0-4.41-3.88-5.33-6.31-3.93a4.31 4.31 0 00-2 4c-.06 4.16 0 8.33 0 12.48 0 .31.12.64-.14 1a3.68 3.68 0 01-1-.86 14.76 14.76 0 00-4.45-3 15.91 15.91 0 00-8.06-.91 13.05 13.05 0 00-8.92 5 16.48 16.48 0 00-3.4 8.84 25.38 25.38 0 001.43 12.47c2.13 5.21 7 9.22 12.88 9.13a13.46 13.46 0 008.46-2.8 15.45 15.45 0 003.1-3 10.58 10.58 0 00.39 3.15 4.07 4.07 0 005.53 2.3c1.85-.75 2.46-2.38 2.47-4.23v-19.74c0-6.59.06-13.25.02-19.9zm-11 34.18a7.78 7.78 0 01-10.77 1.69 9.41 9.41 0 01-3.36-5.55 16.3 16.3 0 01.43-9.43c.92-2.58 2.51-4.71 5.29-5.37 3.81-.9 6.88.35 9 4.07 1 1.86 1.5 4.08 1.5 7.62a12.63 12.63 0 01-2.04 6.97zM135.32 138H152.44a11.94 11.94 0 004-.69 3.53 3.53 0 002.4-2.92 10.33 10.33 0 000-3.42 14.35 14.35 0 00-9.36-11.9 19.19 19.19 0 00-11.37-.72 14.72 14.72 0 00-11.26 9.23 22 22 0 00-1 13.49 15.3 15.3 0 006.34 9.57 16.73 16.73 0 008 2.8 21.8 21.8 0 0011-1.26c3-1.28 5.49-3.12 6.84-6.19a3 3 0 00-.86-3.95 3.72 3.72 0 00-4.26.43 23.59 23.59 0 01-4.57 3.76 9.39 9.39 0 01-7.37 1.24 9.11 9.11 0 01-6.53-8.68c.07-.62.27-.79.88-.79zm-.78-5.85c.42-2.39 1.12-4.63 3-6.31a6.44 6.44 0 014.08-1.64 7.76 7.76 0 014.94 1 8.13 8.13 0 013.51 5.79c.3 1.86.26 1.87-1.62 1.87h-13.21c-.53.05-.81-.1-.7-.7zM170.48 138H187.6a11.75 11.75 0 004-.7 3.5 3.5 0 002.4-2.9 10.33 10.33 0 000-3.42 14.35 14.35 0 00-7.62-11.07 18.36 18.36 0 00-11.84-1.74q-10 1.48-13.08 11.11a23.11 23.11 0 00-.65 10.06 15.57 15.57 0 007.07 11.66 17.78 17.78 0 009.06 2.66 20 20 0 0011-2.11 11.4 11.4 0 005.41-5.63 3 3 0 00-.9-3.79 3.59 3.59 0 00-4.19.34c-.64.6-1.28 1.21-2 1.79-2 1.67-4 3.13-6.72 3.46a8.43 8.43 0 01-8.33-3.83 12.54 12.54 0 01-1.49-4.94c-.09-.72.05-.95.76-.95zm-.78-5.83c.43-2.35 1.09-4.58 3-6.25a6.33 6.33 0 014.24-1.72 8.56 8.56 0 014.06.58c2.62 1.26 3.81 3.51 4.29 6.2.35 1.89.29 1.9-1.67 1.9h-13.09c-.61.03-.95-.08-.83-.7zM85.16 149.13a4.19 4.19 0 01-2.44 4.1 4.26 4.26 0 01-4.53-.38 5 5 0 01-1.86-4.2v-15.57a15.86 15.86 0 00-.83-5.2 4.12 4.12 0 00-3.64-2.94 7.53 7.53 0 00-8.75 6 13.54 13.54 0 00-.26 2.1c-.31 5.32-.15 10.66-.18 16a4.41 4.41 0 01-3.07 4.39c-2.81.73-4.93-.5-5.63-3.32a8.7 8.7 0 01-.2-2.1v-25.4c0-2.17 1-3.89 2.62-4.4 2.88-.88 5.44.49 5.73 4v1.54c2.27-2.85 4.82-4.87 8.21-5.47 4.28-.77 8.34-.33 11.63 2.84a10 10 0 013 6.77c.46 7.11.15 14.17.2 21.24zM48.09 125.73V148.29a6 6 0 01-.84 3.21c-1.31 2.14-3.18 2.37-5.23 2a4.72 4.72 0 01-3.51-4.28c-.38-6.54-.06-13.1-.17-19.64v-1.85c-.08-.77.25-1 1-.92a14.23 14.23 0 005.83-.73 11.92 11.92 0 002.11-.89c.66-.41.81-.26.81.54zM50.21 114.53a7.27 7.27 0 11-7.27-7.24 7.16 7.16 0 017.27 7.24z"/><path class="cls-1" d="M58.69 104c-.38.32-.88-.08-1.25-.34a21.37 21.37 0 00-7.43-3.6 19 19 0 00-14.26 2.36c-6.35 3.68-10.41 9.26-13 16a48.15 48.15 0 00-2 5.94 1.3 1.3 0 01-.49.86 3.58 3.58 0 01.05-2.48 34.37 34.37 0 016.13-15.24c3.43-4.74 7.71-8.46 13.4-10.2 4.81-1.5 9.59-1.46 14.16 1.1a11.47 11.47 0 014.55 4.35c.18.38.6.91.14 1.25z"/></svg>