<?xml version="1.0" encoding="UTF-8"?>
<svg width="148px" height="25px" viewBox="0 0 148 25" version="1.1" xmlns="http://www.w3.org/2000/svg" xmlns:xlink="http://www.w3.org/1999/xlink">
    <!-- Generator: Sketch 64 (93537) - https://sketch.com -->
    <title>Group 23</title>
    <desc>Created with Sketch.</desc>
    <defs>
        <polygon id="path-1" points="0.548037796 -0.00363220353 21 -0.00363220353 21 13.8044276 0.548037796 13.8044276"></polygon>
        <polygon id="path-3" points="0.0719660335 0.471 4.5583029 0.471 4.5583029 4.89212479 0.0719660335 4.89212479"></polygon>
    </defs>
    <g id="❇️-Design/Piktochart" stroke="none" stroke-width="1" fill="none" fill-rule="evenodd">
        <g id="HOME" transform="translate(-273.000000, -3407.000000)">
            <g id="Group-23" transform="translate(261.000000, 3388.000000)">
                <rect id="Rectangle" x="0" y="0" width="171" height="60"></rect>
                <g id="Group-27" transform="translate(12.000000, 18.000000)">
                    <g id="Group-3" transform="translate(127.000000, 6.529200)">
                        <mask id="mask-2" fill="white">
                            <use xlink:href="#path-1"></use>
                        </mask>
                        <g id="Clip-2"></g>
                        <path d="M4.2471,1.863 C7.0391,-1.064 10.8511,-0.247 12.0201,2.234 C12.2951,2.23 12.3471,1.967 12.4821,1.817 C13.9311,0.226 15.7421,-0.267 17.8041,0.142 C19.5191,0.483 20.6251,1.824 20.8661,3.698 C20.9551,4.382 21.0011,5.066 20.9971,5.758 C20.9851,8.219 20.9811,10.681 21.0001544,13.142 C21.0031,13.61 20.8831,13.833 20.3801,13.793 C19.9121,13.757 19.4351,13.805 18.9721,13.748 C17.7261,13.595 17.2931,13.104 17.2861,11.855 C17.2751,9.885 17.2871,7.916 17.2791,5.947 C17.2771,5.604 17.2451,5.259 17.1911,4.922 C16.9721,3.53 16.0161,3.018 14.7171,3.65 C13.2261,4.375 12.7391,5.742 12.6811,7.251 C12.6061,9.169 12.6321,11.091 12.6651,13.01 C12.6761,13.624 12.4951,13.839 11.8721,13.8 C11.1081,13.751 10.3371,13.763 9.5711,13.797 C9.0711,13.818 8.9101,13.702 8.9141,13.148 C8.9301,10.614 8.9911,8.079 8.8731,5.545 C8.8341,4.703 8.7531,3.883 7.8301,3.526 C6.9521,3.188 5.9451,3.579 5.2921,4.458 C4.5221,5.491 4.2801,6.692 4.2591,7.937 C4.2291,9.66 4.2371,11.384 4.2611,13.106 C4.2681,13.592 4.1661,13.825 3.6141,13.799 C2.7751,13.758 1.9321,13.78 1.0901,13.791 C0.7331,13.796 0.5441,13.706 0.548037796,13.295 C0.5801,9.259 0.6111,5.223 0.6041,1.187 C0.6031,0.53 0.7581,0.213 1.4591,0.333 C1.5791,0.353 1.7071,0.342 1.8301,0.334 C3.0011,0.254 3.9691,0.504 4.2471,1.863" id="Fill-1" fill="#83989F" mask="url(#mask-2)"></path>
                    </g>
                    <path d="M57.3887,6.7838 C55.9847,8.8268 54.6897,10.7408 53.3527,12.6278 C53.1397,12.9278 53.1627,13.0478 53.3437,13.3488 C54.2127,14.8048 55.0197,16.2968 55.8667,17.7658 C56.3407,18.5898 56.8487,19.3938 57.3917,20.2898 C56.1957,20.2898 55.0937,20.3048 53.9927,20.2848 C53.1177,20.2688 52.5147,19.8158 52.1157,19.0528 C51.4667,17.8098 50.7997,16.5768 50.1417,15.3408 C49.9917,15.0578 49.8657,14.7708 49.4757,14.7208 C48.9597,14.6518 48.6607,14.6878 48.6887,15.3658 C48.7467,16.7918 48.6867,18.2218 48.7177,19.6488 C48.7287,20.1438 48.6237,20.3498 48.0767,20.3238 C47.1627,20.2798 46.2437,20.2978 45.3287,20.3188 C44.9407,20.3278 44.8197,20.1958 44.8207,19.8098 C44.8287,13.9008 44.8277,7.9908 44.8166948,2.0818 C44.8157,1.6808 44.9577,1.5708 45.3347,1.5898 C45.9037,1.6168 46.4757,1.5758 47.0417,1.6128 C48.1837,1.6898 48.6957,2.2228 48.7017,3.3648 C48.7167,5.7038 48.6967,8.0438 48.7187,10.3828 C48.7217,10.6878 48.4777,11.1748 48.9067,11.2858 C49.4237,11.4198 49.9947,11.3848 50.3547,10.8228 C51.0827,9.6808 51.8517,8.5638 52.5527,7.4058 C52.8447,6.9248 53.1707,6.7448 53.7397,6.7678 C54.8967,6.8178 56.0567,6.7838 57.3887,6.7838" id="Fill-4" fill="#83989F"></path>
                    <path d="M68.4053,8.3229 C69.5233,7.1339 70.8363,6.5299 72.3903,6.4839 C75.4103,6.3969 77.2693,8.0009 77.3793,10.9969 C77.4873,13.9449 77.4123,16.8999 77.4323,19.8529 C77.4343,20.2149 77.3023,20.3269 76.9573,20.3119 C76.4133,20.2879 75.8653,20.3299 75.3253,20.2809 C74.0943,20.1709 73.5583,19.5959 73.5413,18.3659 C73.5193,16.9149 73.5343,15.4629 73.5343,14.0109 C73.5333,13.4449 73.5213,12.8789 73.5363,12.3129 C73.5973,9.7759 71.8743,9.7529 70.3913,10.4389 C68.9703,11.0959 68.5313,12.4179 68.5003,13.8639 C68.4583,15.8069 68.4693,17.7519 68.5003,19.6949 C68.5083,20.1869 68.3703,20.3359 67.8843,20.3169 C66.9943,20.2829 66.1013,20.2869 65.2113,20.3159 C64.7773,20.3299 64.6073,20.2309 64.6093,19.7529 C64.6263,15.6189 64.6213,11.4859 64.6032464,7.3519 C64.6003,6.9029 64.7223,6.7259 65.1843,6.7729 C65.5273,6.8069 65.8773,6.7789 66.2223,6.7799 C67.2723,6.7839 68.1343,7.0729 68.4053,8.3229" id="Fill-6" fill="#83989F"></path>
                    <path d="M106.0381,6.5436 C107.0401,6.5426 108.0121,6.7066 108.9371,7.0876 C110.6251,7.7826 111.4661,9.4806 111.0001,11.1996 C110.9391,11.4216 110.8141,11.4656 110.6281,11.4656 C110.0341,11.4636 109.4361,11.4956 108.8471,11.4446 C108.3581,11.4036 107.9071,11.1706 107.7491,10.6816 C107.5031,9.9146 106.8881,9.7786 106.2341,9.7316 C103.8231,9.5546 101.9751,11.7626 102.4441,14.2346 C102.8791,16.5236 105.0091,17.7976 107.3241,17.1466 C108.2461,16.8876 109.0721,16.4366 109.7431,15.7616 C110.0841,15.4186 110.2281,15.5056 110.4251,15.8676 C110.6841,16.3436 110.9311,16.8386 111.2701,17.2536 C111.7771,17.8716 111.6321,18.2586 111.0551,18.7526 C107.5591,21.7486 101.7761,21.0066 99.6351,17.2156 C98.2841,14.8236 98.2871,12.3556 99.6171,9.9596 C100.8391,7.7566 103.2591,6.5216 106.0381,6.5436" id="Fill-8" fill="#83989F"></path>
                    <path d="M58.5235,13.5582 C58.5235,11.4932 58.5355,9.4262 58.5135,7.3612 C58.5085,6.9192 58.6165,6.7372 59.0885,6.7752 C59.6295,6.8182 60.1795,6.7562 60.7185,6.8122 C61.7665,6.9222 62.3665,7.5012 62.3755,8.5502 C62.4065,12.3372 62.3835,16.1252 62.3955045,19.9122 C62.3965,20.2682 62.2295,20.3162 61.9435,20.3142 C60.9545,20.3072 59.9635,20.2932 58.9755,20.3202 C58.5125,20.3322 58.5335,20.0712 58.5345,19.7552 C58.5405,17.6902 58.5375,15.6242 58.5375,13.5582 L58.5235,13.5582 Z" id="Fill-10" fill="#83989F"></path>
                    <path d="M98.0518,18.1979 C98.0348,19.4149 96.9698,20.4759 95.7698,20.4699253 C94.5728,20.4649 93.4878,19.3559 93.5158,18.1719 C93.5438,16.9919 94.5938,15.9489 95.7628,15.9379 C96.9638,15.9269 98.0688,17.0169 98.0518,18.1979" id="Fill-12" fill="#83989F"></path>
                    <g id="Group-16" transform="translate(58.000000, 0.529200)">
                        <mask id="mask-4" fill="white">
                            <use xlink:href="#path-3"></use>
                        </mask>
                        <g id="Clip-15"></g>
                        <path d="M0.0723,2.6442 C0.0943,1.4532 1.1383,0.4502 2.3343,0.4712 C3.5283,0.4932 4.5603,1.5252 4.5583029,2.6972 C4.5553,3.9072 3.4803,4.9272 2.2443,4.8912 C1.0233,4.8572 0.0513,3.8502 0.0723,2.6442" id="Fill-14" fill="#83989F" mask="url(#mask-4)"></path>
                    </g>
                    <path d="M7.6622,16.941 C6.4262,17.253 5.1532,17.028 3.8982,17.075 C3.5992,17.087 3.6302,16.857 3.6312,16.659 C3.6322,16.07 3.6312,15.48 3.6312,14.891 L3.6432,14.891 C3.6432,14.302 3.6172,13.712 3.6492,13.124 C3.6912,12.385 4.0332,12.054 4.7732,12.039 C5.5872,12.021 6.4062,12.004 7.2162,12.069 C8.3982,12.164 9.1512,13.009 9.2822,14.288 C9.4132,15.557 8.7792,16.66 7.6622,16.941 M3.6282,8.664 C3.6512,8.199 3.6342,7.732 3.6342,7.266 L3.6422,7.266 C3.6422,6.776 3.6292,6.285 3.6462,5.795 C3.6712,5.093 4.0512,4.701 4.7562,4.677 C5.4212,4.656 6.0912,4.638 6.7522,4.693 C7.9462,4.791 8.6292,5.642 8.6022,6.924 C8.5762,8.181 7.8322,9.054 6.6732,9.113 C5.8112,9.156 4.9462,9.112 4.0842,9.135 C3.7202,9.145 3.6102,9.009 3.6282,8.664 M10.2532,10.357 C11.0822,9.719 11.6842,8.99 12.0052,8.05 C13.0202,5.068 11.2232,2.241 7.9352,1.741 C5.8962,1.431 3.8342,1.598 1.7842,1.632 C0.7492,1.65 0.0152,2.542 0.0122,3.648 C-0.0028,9.012 0.0082,14.377 0.000188905366,19.74 C-0.0008,20.07 0.0652,20.232 0.4422,20.228 C2.8182,20.203 5.2002,20.296 7.5672,20.153 C9.6602,20.026 11.4572,19.161 12.4532,17.173 C13.7202,14.645 12.9192,12.17 10.2532,10.357" id="Fill-17" fill="#83989F"></path>
                    <path d="M88.002,14.8219 C87.698,15.8809 87.002,16.5089 85.903,16.6249 C84.779,16.7429 83.854,16.3599 83.256,15.3649 C82.84,14.6709 82.706,13.8989 82.71,13.0999 C82.706,12.5799 82.768,12.0679 82.94,11.5759 C83.353,10.3859 84.227,9.8199 85.567,9.8589 C86.883,9.8969 87.681,10.4759 88.024,11.6939 C88.317,12.7329 88.3,13.7799 88.002,14.8219 M91.8,6.7589 C90.801,6.4219 89.201,6.8739 88.508,7.7019 C84.83,5.1869 80.364,6.6009 79.11,10.6819 C78.804,11.6799 78.702,12.7089 78.769,13.7489 C79.155,19.7529 84.793,21.3259 88.06,19.0719 C88.268,20.5469 87.5,21.6399 86.026,21.9719 C84.801,22.2499 83.617,22.0469 82.444,21.6819 C81.357,21.3449 80.982,21.5229 80.548,22.5719 C80.407,22.9129 80.31,23.2769 80.126,23.5929 C79.798,24.1579 80.045,24.3849 80.563,24.6129 C82.207,25.3359 83.92,25.6039 85.704,25.5109 C89.542,25.3119 91.995,22.7709 92.003,18.9789 C92.006,17.5259 92.006,16.0729 92.007,14.6199 C92.009,12.2059 92.016,9.7929 92.005,7.3789 C92.004,7.1679 92.161,6.8809 91.8,6.7589" id="Fill-19" fill="#83989F"></path>
                    <path d="M39.5098,14.6158 C39.1278,16.2738 37.8758,17.2718 36.2278,17.2318 C34.6748,17.1948 33.4258,16.0828 33.1358,14.4658 C33.0798,14.1518 33.0678,13.8308 33.0457924,13.6258 C33.0418,11.1128 34.6258,9.5678 36.8208,9.8408 C37.9438,9.9798 38.7258,10.6078 39.2098,11.5988 C39.6808,12.5608 39.7488,13.5768 39.5098,14.6158 M36.2888,6.5078 C32.2128,6.5338 29.2528,9.4718 29.2467878,13.5008 C29.2398,17.5588 32.2348,20.5148 36.3438,20.5068162 C40.4618,20.4978 43.4248,17.5548 43.4148252,13.4828 C43.4058,9.4278 40.3968,6.4808 36.2888,6.5078" id="Fill-21" fill="#83989F"></path>
                    <path d="M122.2706,14.7936 C121.8266,16.3966 120.4886,17.3496 118.8446,17.2306 C117.3496,17.1226 116.0846,15.8576 115.9106,14.2876 C115.8806,14.0206 115.8786,13.7486 115.8646,13.4796 C115.8386,12.8026 115.9746,12.1576 116.2756,11.5536 C116.9036,10.2926 118.0586,9.6996 119.5846,9.8416 C120.8416,9.9566 121.9256,10.9176 122.2736,12.2486 C122.4946,13.0936 122.5056,13.9446 122.2706,14.7936 M119.1146,6.49359899 C115.0716,6.4916 112.0586,9.4686 112.04757,13.4756 C112.0366,17.5466 115.0086,20.5036 119.1146,20.5046003 C123.2476,20.5056 126.2006,17.5916 126.201601,13.5106 C126.2036,9.4436 123.2246,6.4946 119.1146,6.49359899" id="Fill-23" fill="#83989F"></path>
                    <path d="M20.1866,17.0924 C18.7926,16.6694 17.9196,15.3484 17.8716,13.5904 C17.8036,11.1594 19.4706,9.5354 21.7166,9.8454 C23.3326,10.0684 24.4706,11.5854 24.4716,13.5154 C24.4716,16.1144 22.4696,17.7864 20.1866,17.0924 M21.1666,6.50737938 C17.0996,6.4984 14.1036,9.4364 14.0834992,13.4524 C14.0636,17.5294 17.0206,20.4934 21.1236,20.5064432 C25.2496,20.5194 28.2306,17.5974 28.2376124,13.5314 C28.2446,9.4624 25.2796,6.5164 21.1666,6.50737938" id="Fill-25" fill="#83989F"></path>
                </g>
            </g>
        </g>
    </g>
</svg>