<?xml version="1.0" encoding="UTF-8"?>
<svg width="134px" height="35px" viewBox="0 0 134 35" version="1.1" xmlns="http://www.w3.org/2000/svg" xmlns:xlink="http://www.w3.org/1999/xlink">
    <!-- Generator: Sketch 64 (93537) - https://sketch.com -->
    <title>Group 27</title>
    <desc>Created with Sketch.</desc>
    <g id="❇️-Design/Piktochart" stroke="none" stroke-width="1" fill="none" fill-rule="evenodd">
        <g id="HOME" transform="translate(-1028.000000, -3399.000000)">
            <g id="Group-27" transform="translate(1009.000000, 3388.000000)">
                <rect id="Rectangle-Copy-14" x="0" y="0" width="171" height="60"></rect>
                <g id="Shape-2" transform="translate(19.000000, 11.000000)" fill="#83989F" fill-rule="nonzero">
                    <path d="M77.867733,9.78539447 L85.5650402,6.95709603 L77.867733,3.96487844 L77.867733,7.10542736e-14 L91.0539054,5.25484049 L91.0539054,8.49020349 L77.867733,13.7503521 L77.867733,9.78539447 Z M5.07861076,34.8595567 C2.29629615,34.8595567 9.23705556e-13,33.4850602 9.23705556e-13,30.4135372 L9.23705556e-13,30.2496972 C9.23705556e-13,26.5279642 3.27558707,25.2327732 7.28947084,25.2327732 L9.1730946,25.2327732 L9.1730946,24.5031785 C9.1730946,22.9648421 8.52023399,22.0766365 6.88244045,22.0766365 C5.41068307,22.0766365 4.67238638,22.8855367 4.59178631,24.0168085 L0.492466462,24.0168085 C0.818896768,20.6176056 3.5214173,18.9998845 7.12343468,18.9998845 C10.8052461,18.9998845 13.5077667,20.5383001 13.5077667,24.3393386 L13.5077667,34.5317976 L9.33348875,34.5317976 L9.33348875,32.7502366 C8.51459198,33.8921248 7.12343468,34.8595567 5.07861076,34.8595567 Z M9.1730946,29.4407971 L9.1730946,27.9869951 L7.45550699,27.9869951 C5.32524699,27.9869951 4.25971399,28.5526706 4.25971399,29.9271671 L4.25971399,30.0910863 C4.25971399,31.1431318 4.91338061,31.8726473 6.38997399,31.8726473 C7.86737338,31.8726473 9.1730946,31.0585182 9.1730946,29.4407971 Z M23.2539278,34.8595567 C18.9934078,34.8595567 15.8846629,32.2691747 15.8846629,27.0936397 L15.8846629,26.8557233 C15.8846629,21.6748801 19.159444,18.9258871 23.2539278,18.9258871 C26.7753451,18.9258871 29.6382598,20.7074482 29.9703321,24.6670977 L25.8758483,24.6670977 C25.630018,23.2132957 24.8111213,22.2405556 23.3393639,22.2405556 C21.5355342,22.2405556 20.229813,23.6943576 20.229813,26.6865752 L20.229813,27.172866 C20.229813,30.2443891 21.37514,31.6188856 23.3393639,31.6188856 C24.8111213,31.6188856 25.8758483,30.56684 26.1224845,28.8698926 L30.0509322,28.8698926 C29.8042959,32.3537092 27.4282057,34.8595567 23.2539278,34.8595567 Z M39.3038209,34.8595567 C35.0441069,34.8595567 31.9345559,32.2691747 31.9345559,27.0936397 L31.9345559,26.8557233 C31.9345559,21.6801883 35.210143,18.9311953 39.3038209,18.9311953 C42.8252382,18.9311953 45.6889588,20.7127563 46.0202252,24.6723266 L41.9265473,24.6723266 C41.6799111,23.2185246 40.8610143,22.2458638 39.3892569,22.2458638 C37.5862332,22.2458638 36.280512,23.6996658 36.280512,26.6918041 L36.280512,27.1781742 C36.280512,30.2496972 37.4258391,31.6241937 39.3892569,31.6241937 C40.8610143,31.6241937 41.9265473,30.5721481 42.1723775,28.8752008 L46.1008252,28.8752008 C45.854995,32.3537092 43.4780988,34.8595567 39.3038209,34.8595567 Z M55.436732,34.8595567 C51.0133998,34.8595567 47.984449,32.2691747 47.984449,27.1781742 L47.984449,26.8557233 C47.984449,21.7594937 51.179436,18.9311953 55.3561319,18.9311953 C59.2007555,18.9311953 62.4005785,21.0352072 62.4005785,26.1314367 L62.4005785,27.9923033 L52.4061691,27.9923033 C52.5673693,30.7412962 53.8005504,31.7933418 55.5979321,31.7933418 C57.2341137,31.7933418 58.1368345,30.9052154 58.4672948,29.8531698 L62.4811786,29.8531698 C61.900858,32.6762393 59.5312158,34.8595567 55.436732,34.8595567 Z M52.4061691,25.1534677 L58.2174346,25.1534677 C58.1368345,22.8907656 57.0729135,21.9180255 55.3561319,21.9180255 C53.9617506,22.0026392 52.7285694,22.7269257 52.4061691,25.1534677 Z M65.012021,19.3329517 L69.356365,19.3329517 L69.356365,21.5955746 C70.0898257,20.1417726 71.6454072,19.0051926 74.0231094,19.0051926 C76.803812,19.0051926 78.6898538,20.70214 78.6898538,24.3445676 L78.6898538,34.5371058 L74.3455097,34.5371058 L74.3455097,24.9948567 C74.3455097,23.2132957 73.612049,22.4043955 72.0564676,22.4043955 C70.5814862,22.4043955 69.356365,23.2926012 69.356365,25.2327732 L69.356365,34.5317976 L65.012021,34.5317976 L65.012021,19.3329517 Z M86.6289612,14.7230922 L86.6289612,19.3329517 L89.578924,19.3329517 L89.578924,22.4890092 L86.6289612,22.4890092 L86.6289612,29.6893299 C86.6289612,30.8206017 87.1206217,31.3862772 88.1845427,31.3862772 C88.8374033,31.3862772 89.2565237,31.3069717 89.6595241,31.1431318 L89.6595241,34.4578003 C89.1678636,34.6216402 88.2651428,34.7802512 87.2012218,34.7802512 C83.8482586,34.7802512 82.2926772,33.2418356 82.2926772,30.1703917 L82.2926772,22.483701 L80.4952955,22.483701 L80.4952955,19.3276435 L82.2926772,19.3276435 L82.2926772,16.4993451 L86.6289612,14.7230922 Z M105.787599,34.5371058 L101.451315,34.5371058 L101.451315,32.2744037 C100.709794,33.7282056 99.2428731,34.8648649 96.9457709,34.8648649 C94.1650683,34.8648649 92.1178264,33.1678383 92.1178264,29.6100244 L92.1178264,19.3329517 L96.4541104,19.3329517 L96.4541104,29.0390407 C96.4541104,30.8206017 97.1956311,31.6295019 98.6706125,31.6295019 C100.137534,31.6295019 101.370715,30.6567618 101.370715,28.8011242 L101.370715,19.4122572 L105.706999,19.4122572 L105.706999,34.5371058 L105.787599,34.5371058 Z M108.987422,19.3329517 L113.323706,19.3329517 L113.323706,22.1612501 C114.226427,20.1417726 115.701408,19.1690326 117.990451,19.1690326 L117.990451,23.3771356 C115.040488,23.3771356 113.323706,24.2652621 113.323706,26.7764178 L113.323706,34.6216402 L108.987422,34.6216402 L108.987422,19.3329517 Z M126.751679,34.8595567 C122.334795,34.8595567 119.304232,32.2691747 119.304232,27.1781742 L119.304232,26.8557233 C119.304232,21.7594937 122.495995,18.9311953 126.671079,18.9311953 C130.523762,18.9311953 133.715525,21.0352072 133.715525,26.1314367 L133.715525,27.9923033 L123.721116,27.9923033 C123.890376,30.7412962 125.115497,31.7933418 126.920939,31.7933418 C128.557121,31.7933418 129.451781,30.9052154 129.782242,29.8531698 L133.796125,29.8531698 C133.143265,32.6762393 130.765563,34.8595567 126.751679,34.8595567 Z M123.640516,25.1534677 L129.451781,25.1534677 C129.379241,22.8907656 128.30726,21.9180255 126.590479,21.9180255 C125.284757,22.0026392 124.051576,22.7269257 123.640516,25.1534677 Z" id="Shape"></path>
                </g>
            </g>
        </g>
    </g>
</svg>