<svg id="Layer_1" data-name="Layer 1" xmlns="http://www.w3.org/2000/svg" viewBox="20.051 99.894 209.95 50.185"><defs><style>.cls-1{fill:#83989f}</style></defs><path class="cls-1" d="M170.62 129.6c-.71-4.4-2.46-8.23-6.4-10.62s-8.5-2.77-13.08-1.8a13.05 13.05 0 00-10.06 8.82 21.42 21.42 0 00-.22 14.18 13.31 13.31 0 009.59 9.22 18.09 18.09 0 008 .38 13.8 13.8 0 009.11-5.17c2.56-3.32 3.33-7.11 3.33-11.78a18.66 18.66 0 00-.27-3.23zm-9.78 11.08c-1.25 2-3.06 2.82-5.65 2.81-3.09.11-5.11-1.72-6.19-4.37-1.81-4.41-1.84-8.89.86-13a6.56 6.56 0 0111.28.33 13.38 13.38 0 01-.3 14.23zM58.82 135.5h19.15c.93 0 1.28-.31 1.19-1.22a56.25 56.25 0 00-.72-6.36 13.63 13.63 0 00-7.36-9.8 15.65 15.65 0 00-8.89-1.35 12.58 12.58 0 00-8.26 4.23c-2.92 3.3-3.85 7.36-4.16 11.62a21.63 21.63 0 001 7.7 13.15 13.15 0 005 7.25c3.89 2.7 8.21 3 12.65 1.94a13.83 13.83 0 009.78-8.13c.62-1.38.6-1.4-.84-1.4-1.6 0-3.22.07-4.81 0a2.48 2.48 0 00-2.46 1.27 6.41 6.41 0 01-6.92 2.63 5.69 5.69 0 01-5-5.11 13.22 13.22 0 00-.24-2.19c-.36-1 .13-1.08.89-1.08zm-.65-6.68a9.3 9.3 0 011.83-4.34 6.2 6.2 0 019.84 1.7c.51 1.18 1.31 2.59.66 3.65-.5.83-2 .21-3.08.27s-2.13 0-3.18 0c-1.65 0-3.3-.05-4.94 0-1.05.1-1.45-.04-1.13-1.28zM202.42 148.12c0 .45-.13.52-.5.52h-6.93c-.57 0-.45-.32-.45-.68V129.7a11.45 11.45 0 00-.3-2.54c-.62-2.66-2.08-3.74-5-3.74-3.75 0-5.68 1.39-6.72 4.82a5.94 5.94 0 00-.12 1.73v17.45c0 1-.28 1.27-1.25 1.24-1.79-.08-3.6-.08-5.41 0-1.05 0-1.39-.24-1.39-1.35V121.8v-3.53c0-.77.18-1.11 1-1.08 2 .07 4.08 0 6.11 0 .67 0 .91.23.88.88v3.6c.81-.87 1.36-1.44 1.9-2 2.1-2.33 4.86-3 7.84-3a11.76 11.76 0 015 1 8.5 8.5 0 015.18 8c.25 7.47.11 14.96.16 22.45zM138.65 147.68c0 .66-.13 1-.89 1h-24.09c-.75 0-1-.27-.94-.95v-4.81c0-1.41 1.14-2.08 1.87-3 3.78-4.56 7.64-9.05 11.48-13.56a26.81 26.81 0 002.28-2.77h-13.3c-1.06 0-1.46-.25-1.38-1.35.1-1.39 0-2.81 0-4.2 0-.61.19-.83.81-.83h22.81c.68 0 .87.25.85.89 0 1.65-.06 3.29 0 4.92 0 .79-.49 1.22-.88 1.7-3.45 4.13-6.94 8.21-10.42 12.32l-4.19 5c.43.42.89.25 1.29.25h13.52c.95 0 1.21.31 1.16 1.21-.04 1.37-.01 2.78.02 4.18zM49.71 118.31q-2.45 7.05-4.89 14.11c-1.79 5.22-3.6 10.43-5.36 15.67a.73.73 0 01-.84.57h-7c-.72 0-.92-.33-1.13-.9-1.49-4.39-3-8.75-4.54-13.12q-2.8-8.08-5.65-16.19c-.43-1.24-.41-1.24.92-1.24h6.11c.67 0 1 .14 1.21.87q3.07 10.5 6.22 21c.1.35.25.7.38 1h.26c2-7.34 4-14.67 5.95-22 .16-.56.39-.86 1.05-.86 2.22 0 4.46.06 6.69 0 1.05-.07.84.44.62 1.09zM99.65 123.56c.06 1.19-.52 1.35-1.4 1.15a7.84 7.84 0 00-4.24.38 5.79 5.79 0 00-4.06 5.3c-.41 5.81-.09 11.62-.17 17.41 0 .62 0 .89-.75.88-2.14-.07-4.3 0-6.46 0-.38 0-.67.07-.67-.58q.07-14.75 0-29.48c0-1.08.27-1.43 1.36-1.37 1.88.08 3.77 0 5.64 0 .63 0 1 0 .87.86-.13 1.45 0 2.89 0 4.34a.76.76 0 00.35.81 13.21 13.21 0 013.09-4.45 8.6 8.6 0 015.56-2.13c.57 0 .89.27.87 1-.05 1.9-.1 3.9.01 5.88zM110 147.44c0 1-.29 1.27-1.26 1.24-1.92-.08-3.84-.05-5.76 0-.73 0-1-.17-1-1v-29.49c0-.78.25-1 1-1 2 .05 4 .07 6 0 .87 0 1 .32 1 1.1v14.75c0 4.92-.06 9.6.02 14.4zM229.8 100.94c-1.43 3-2.83 6.08-4.24 9.13q-5 10.65-9.94 21.3a1.21 1.21 0 01-1.32.83c-3.23 0-3.14 0-4.46-3-1.76-3.95-3.68-7.82-5.52-11.75-.52-1.09-.49-1.17.7-1.19h1.17c2.42 0 2.38 0 3.37 2.27 1.11 2.53 2.28 5 3.54 7.83 1.36-2.29 2.22-4.46 3.22-6.56 1.94-4.09 3.83-8.19 5.75-12.3 1-2.22 2.08-4.44 3.08-6.68a1.28 1.28 0 011.43-.91 22.21 22.21 0 002.58 0c.89-.01 1.02.27.64 1.03zM110 106.85v5.62c0 .6-.2.82-.81.81h-6.35c-.57 0-.87-.12-.85-.76v-5.75c0-.57.22-.74.76-.73h6.46c.58-.04.79.22.79.81z"/></svg>